<svg xmlns="http://www.w3.org/2000/svg" width="197mm" height="198mm" viewBox="-1 -197 197 198" version="1.1">
<title>OpenSCAD Model</title>
<path d="M 135.927,-50.3196 L 135.927,-44.5772 L 132.927,-44.5772 L 132.927,-50.3196 M 10.6,-50.3196 L 10.6,-44.5772 L 7.6,-44.5772 L 7.6,-50.3196 M -0.05,-50.3196 L -0.05,-17.45 L 3.42304,-17.45 L 3.95294,-17.4083 L 4.46788,-17.2847 L 4.95715,-17.082 L 5.40868,-16.8053 L 5.81138,-16.4614 L 6.15531,-16.0587 L 6.43201,-15.6071 L 6.63467,-15.1179 L 6.7583,-14.6029 L 6.79985,-14.075 L 6.7583,-13.5471 L 6.63467,-13.0321 L 6.43201,-12.5429 L 6.15531,-12.0913 L 5.81138,-11.6886 L 5.40868,-11.3447 L 4.95715,-11.068 L 4.46788,-10.8653 L 3.95294,-10.7417 L 3.42304,-10.7 L 1.24804,-10.7 L 1.04661,-10.6841 L 0.84823,-10.6365 L 0.659742,-10.5584 L 0.485788,-10.4518 L 0.330652,-10.3193 L 0.198153,-10.1642 L 0.0915538,-9.99026 L 0.0134795,-9.80177 L -0.0341475,-9.60339 L -0.05,-9.40196 L -0.05,0.05 L 143.577,0.05 M 71.1812,-37.0983 L 70.7439,-37.2405 L 70.3456,-37.4704 L 70.0039,-37.7781 L 69.7336,-38.1501 L 69.5465,-38.5702 L 69.4509,-39.0201 L 69.4509,-39.4799 L 69.5465,-39.9298 L 69.7336,-40.3499 L 70.0039,-40.7219 L 70.3456,-41.0296 L 70.7439,-41.2595 L 71.1812,-41.4017 L 71.6386,-41.4497 L 72.0959,-41.4017 L 72.5333,-41.2595 L 72.9316,-41.0296 L 73.2733,-40.7219 L 73.5436,-40.3499 L 73.7307,-39.9298 L 73.8263,-39.4799 L 73.8263,-39.0201 L 73.7307,-38.5702 L 73.5436,-38.1501 L 73.2733,-37.7781 L 72.9316,-37.4704 L 72.5333,-37.2405 L 72.0959,-37.0983 L 71.6386,-37.0503 L 71.1812,-37.0983 M 136.027,-38.2848 L 136.027,-40.7848 L 139.027,-40.7848 L 139.027,-38.2848 L 136.027,-38.2848 M 4.5,-38.2848 L 4.5,-40.7848 L 7.5,-40.7848 L 7.5,-38.2848 L 4.5,-38.2848 M 56.1406,-7.3 L 55.3643,-7.3611 L 54.609,-7.54242 L 53.8914,-7.83966 L 53.2291,-8.24549 L 52.6385,-8.74993 L 52.1341,-9.34055 L 51.7282,-10.0028 L 51.431,-10.7204 L 51.2497,-11.4757 L 51.1886,-12.252 L 51.1886,-31.248 L 51.2497,-32.0243 L 51.431,-32.7796 L 51.7282,-33.4972 L 52.1341,-34.1594 L 52.6385,-34.7501 L 53.2291,-35.2545 L 53.8914,-35.6603 L 54.609,-35.9576 L 55.3643,-36.1389 L 56.1406,-36.2 L 81.1366,-36.2 L 81.9129,-36.1389 L 82.6682,-35.9576 L 83.3858,-35.6603 L 84.048,-35.2545 L 84.6387,-34.7501 L 85.1431,-34.1594 L 85.5489,-33.4972 L 85.8462,-32.7796 L 86.0275,-32.0243 L 86.0886,-31.248 L 86.0886,-12.252 L 86.0275,-11.4757 L 85.8462,-10.7204 L 85.5489,-10.0028 L 85.1431,-9.34055 L 84.6387,-8.74993 L 84.048,-8.24549 L 83.3858,-7.83966 L 82.6682,-7.54242 L 81.9129,-7.3611 L 81.1366,-7.3 L 56.1406,-7.3 M 137.297,-31.6971 L 136.847,-31.7927 L 136.427,-31.9798 L 136.055,-32.2501 L 135.748,-32.5918 L 135.518,-32.9901 L 135.375,-33.4274 L 135.327,-33.8848 L 135.375,-34.3421 L 135.518,-34.7795 L 135.748,-35.1778 L 136.055,-35.5195 L 136.427,-35.7898 L 136.847,-35.9769 L 137.297,-36.0725 L 137.757,-36.0725 L 138.207,-35.9769 L 138.627,-35.7898 L 138.999,-35.5195 L 139.307,-35.1778 L 139.537,-34.7795 L 139.679,-34.3421 L 139.727,-33.8848 L 139.679,-33.4274 L 139.537,-32.9901 L 139.307,-32.5918 L 138.999,-32.2501 L 138.627,-31.9798 L 138.207,-31.7927 L 137.757,-31.6971 L 137.297,-31.6971 M 5.77007,-31.6971 L 5.32025,-31.7927 L 4.90014,-31.9798 L 4.5281,-32.2501 L 4.22039,-32.5918 L 3.99045,-32.9901 L 3.84834,-33.4274 L 3.80028,-33.8848 L 3.84834,-34.3421 L 3.99045,-34.7795 L 4.22039,-35.1778 L 4.5281,-35.5195 L 4.90014,-35.7898 L 5.32025,-35.9769 L 5.77007,-36.0725 L 6.22993,-36.0725 L 6.67975,-35.9769 L 7.09986,-35.7898 L 7.4719,-35.5195 L 7.77961,-35.1778 L 8.00955,-34.7795 L 8.15166,-34.3421 L 8.19972,-33.8848 L 8.15166,-33.4274 L 8.00955,-32.9901 L 7.77961,-32.5918 L 7.4719,-32.2501 L 7.09986,-31.9798 L 6.67975,-31.7927 L 6.22993,-31.6971 L 5.77007,-31.6971 M 136.027,-18.5 L 136.027,-23.5 L 139.027,-23.5 L 139.027,-18.5 L 136.027,-18.5 M 4.5,-18.5 L 4.5,-23.5 L 7.5,-23.5 L 7.5,-18.5 L 4.5,-18.5 M 19.0026,-11.55 L 18.9065,-11.5601 L 18.8171,-11.5892 L 18.7357,-11.6362 L 18.6658,-11.6991 L 18.6105,-11.7751 L 18.5723,-11.861 L 18.5527,-11.953 L 18.5527,-13.047 L 18.5723,-13.139 L 18.6105,-13.2249 L 18.6658,-13.3009 L 18.7357,-13.3638 L 18.8171,-13.4108 L 18.9065,-13.4399 L 19.0026,-13.45 L 20.9974,-13.45 L 21.0935,-13.4399 L 21.1829,-13.4108 L 21.2643,-13.3638 L 21.3342,-13.3009 L 21.3895,-13.2249 L 21.4277,-13.139 L 21.4473,-13.047 L 21.4473,-11.953 L 21.4277,-11.861 L 21.3895,-11.7751 L 21.3342,-11.6991 L 21.2643,-11.6362 L 21.1829,-11.5892 L 21.0935,-11.5601 L 20.9974,-11.55 L 19.0026,-11.55 M 71.1812,-2.09834 L 70.7439,-2.24045 L 70.3456,-2.47039 L 70.0039,-2.7781 L 69.7336,-3.15014 L 69.5465,-3.57025 L 69.4509,-4.02007 L 69.4509,-4.47993 L 69.5465,-4.92975 L 69.7336,-5.34986 L 70.0039,-5.7219 L 70.3456,-6.02961 L 70.7439,-6.25955 L 71.1812,-6.40166 L 71.6386,-6.44972 L 72.0959,-6.40166 L 72.5333,-6.25955 L 72.9316,-6.02961 L 73.2733,-5.7219 L 73.5436,-5.34986 L 73.7307,-4.92975 L 73.8263,-4.47993 L 73.8263,-4.02007 L 73.7307,-3.57025 L 73.5436,-3.15014 L 73.2733,-2.7781 L 72.9316,-2.47039 L 72.5333,-2.24045 L 72.0959,-2.09834 L 71.6386,-2.05028 L 71.1812,-2.09834 M 19.0026,-3.05 L 18.9065,-3.0601 L 18.8171,-3.08916 L 18.7357,-3.13617 L 18.6658,-3.19908 L 18.6105,-3.27514 L 18.5723,-3.36103 L 18.5527,-3.45299 L 18.5527,-4.54701 L 18.5723,-4.63897 L 18.6105,-4.72486 L 18.6658,-4.80092 L 18.7357,-4.86383 L 18.8171,-4.91084 L 18.9065,-4.9399 L 19.0026,-4.95 L 20.9974,-4.95 L 21.0935,-4.9399 L 21.1829,-4.91084 L 21.2643,-4.86383 L 21.3342,-4.80092 L 21.3895,-4.72486 L 21.4277,-4.63897 L 21.4473,-4.54701 L 21.4473,-3.45299 L 21.4277,-3.36103 L 21.3895,-3.27514 L 21.3342,-3.19908 L 21.2643,-3.13617 L 21.1829,-3.08916 L 21.0935,-3.0601 L 20.9974,-3.05 L 19.0026,-3.05" stroke="#0000ff" fill="none" stroke-width="0.1"/>
<path d="M 130.79,-47.2696 L 129.202,-48.0637 L 129.202,-46.4755 L 130.79,-47.2696" stroke="none" fill="#000000" stroke-width="0.35"/><path d="M 176.447,-143.577 L 143.577,-143.577 L 143.577,-135.927 L 149.32,-135.927 L 149.32,-132.927 L 143.577,-132.927 M 143.577,-10.6 L 149.32,-10.6 L 149.32,-7.6 L 143.577,-7.6 M 143.577,0.05 L 176.447,0.05 L 176.447,-143.577 M 159.555,-135.375 L 159.117,-135.518 L 158.719,-135.748 L 158.377,-136.055 L 158.107,-136.427 L 157.92,-136.847 L 157.824,-137.297 L 157.824,-137.757 L 157.92,-138.207 L 158.107,-138.627 L 158.377,-138.999 L 158.719,-139.307 L 159.117,-139.537 L 159.555,-139.679 L 160.012,-139.727 L 160.469,-139.679 L 160.907,-139.537 L 161.305,-139.307 L 161.647,-138.999 L 161.917,-138.627 L 162.104,-138.207 L 162.2,-137.757 L 162.2,-137.297 L 162.104,-136.847 L 161.917,-136.427 L 161.647,-136.055 L 161.305,-135.748 L 160.907,-135.518 L 160.469,-135.375 L 160.012,-135.327 L 159.555,-135.375 M 164.412,-136.027 L 164.412,-139.027 L 169.412,-139.027 L 169.412,-136.027 L 164.412,-136.027 M 153.112,-136.027 L 153.112,-139.027 L 155.612,-139.027 L 155.612,-136.027 L 153.112,-136.027 M 157.69,-124.001 L 156.854,-124.373 L 156.242,-125.053 L 155.96,-125.922 L 156.055,-126.832 L 156.513,-127.623 L 157.252,-128.161 L 158.152,-128.352 L 172.141,-128.352 L 173.041,-128.161 L 173.781,-127.623 L 174.238,-126.832 L 174.334,-125.922 L 174.051,-125.053 L 173.439,-124.373 L 172.604,-124.001 L 157.69,-124.001 M 171.71,-61.8347 L 171.293,-61.9703 L 170.913,-62.1898 L 170.586,-62.4835 L 170.328,-62.8387 L 170.15,-63.2397 L 170.058,-63.669 L 170.058,-64.108 L 170.15,-64.5374 L 170.328,-64.9384 L 170.586,-65.2935 L 170.913,-65.5872 L 171.293,-65.8067 L 171.71,-65.9424 L 172.147,-65.9882 L 172.583,-65.9424 L 173.001,-65.8067 L 173.381,-65.5872 L 173.707,-65.2935 L 173.965,-64.9384 L 174.144,-64.5374 L 174.235,-64.108 L 174.235,-63.669 L 174.144,-63.2397 L 173.965,-62.8387 L 173.707,-62.4835 L 173.381,-62.1898 L 173.001,-61.9703 L 172.583,-61.8347 L 172.147,-61.7888 L 171.71,-61.8347 M 159.555,-3.84834 L 159.117,-3.99045 L 158.719,-4.22039 L 158.377,-4.5281 L 158.107,-4.90014 L 157.92,-5.32025 L 157.824,-5.77007 L 157.824,-6.22993 L 157.92,-6.67975 L 158.107,-7.09986 L 158.377,-7.4719 L 158.719,-7.77961 L 159.117,-8.00955 L 159.555,-8.15166 L 160.012,-8.19972 L 160.469,-8.15166 L 160.907,-8.00955 L 161.305,-7.77961 L 161.647,-7.4719 L 161.917,-7.09986 L 162.104,-6.67975 L 162.2,-6.22993 L 162.2,-5.77007 L 162.104,-5.32025 L 161.917,-4.90014 L 161.647,-4.5281 L 161.305,-4.22039 L 160.907,-3.99045 L 160.469,-3.84834 L 160.012,-3.80028 L 159.555,-3.84834 M 164.412,-4.5 L 164.412,-7.5 L 169.412,-7.5 L 169.412,-4.5 L 164.412,-4.5 M 153.112,-4.5 L 153.112,-7.5 L 155.612,-7.5 L 155.612,-4.5 L 153.112,-4.5" stroke="#0000ff" fill="none" stroke-width="0.1"/><path d="M 146.713,-12.6796 L 146.799,-12.6931 L 146.882,-12.7154 L 146.963,-12.7464 L 147.04,-12.7856 L 147.112,-12.8326 L 147.179,-12.887 L 147.24,-12.948 L 147.295,-13.0151 L 147.342,-13.0875 L 147.381,-13.1645 L 147.412,-13.2451 L 147.434,-13.3285 L 147.448,-13.4138 L 147.452,-13.5 L 147.448,-13.5862 L 147.434,-13.6715 L 147.412,-13.7549 L 147.381,-13.8355 L 147.342,-13.9125 L 147.295,-13.9849 L 147.24,-14.052 L 147.179,-14.113 L 147.112,-14.1674 L 147.04,-14.2144 L 146.963,-14.2536 L 146.882,-14.2846 L 146.799,-14.3069 L 146.713,-14.3204 L 146.627,-14.3249 L 146.541,-14.3204 L 146.456,-14.3069 L 146.372,-14.2846 L 146.292,-14.2536 L 146.215,-14.2144 L 146.142,-14.1674 L 146.075,-14.113 L 146.014,-14.052 L 145.96,-13.9849 L 145.913,-13.9125 L 145.874,-13.8355 L 145.843,-13.7549 L 145.82,-13.6715 L 145.807,-13.5862 L 145.802,-13.5 L 145.807,-13.4138 L 145.82,-13.3285 L 145.843,-13.2451 L 145.874,-13.1645 L 145.913,-13.0875 L 145.96,-13.0151 L 146.014,-12.948 L 146.075,-12.887 L 146.142,-12.8326 L 146.215,-12.7856 L 146.292,-12.7464 L 146.372,-12.7154 L 146.456,-12.6931 L 146.541,-12.6796 L 146.627,-12.6751 L 146.713,-12.6796" stroke="none" fill="#000000" stroke-width="0.35"/><path d="M 143.577,-133.02 L -0.05,-133.02 L -0.05,-50.3196 L 143.577,-50.3196 M 143.577,0.05 L 143.577,-133.02 M 136.027,-100.986 L 136.027,-119.62 L 139.027,-119.62 L 139.027,-100.986 L 136.027,-100.986 M 4.5,-100.986 L 4.5,-119.62 L 7.5,-119.62 L 7.5,-100.986 L 4.5,-100.986 M 12.3396,-63.7696 L 12.3396,-119.57 L 120.889,-119.57 L 120.889,-63.7696 L 12.3396,-63.7696 M 5.54265,-89.5179 L 5.10529,-89.66 L 4.70703,-89.89 L 4.36529,-90.1977 L 4.09498,-90.5697 L 3.90794,-90.9898 L 3.81233,-91.4397 L 3.81233,-91.8995 L 3.90794,-92.3493 L 4.09498,-92.7695 L 4.36529,-93.1415 L 4.70703,-93.4492 L 5.10529,-93.6791 L 5.54265,-93.8212 L 6,-93.8693 L 6.45735,-93.8212 L 6.89471,-93.6791 L 7.29297,-93.4492 L 7.63471,-93.1415 L 7.90502,-92.7695 L 8.09206,-92.3493 L 8.18767,-91.8995 L 8.18767,-91.4397 L 8.09206,-90.9898 L 7.90502,-90.5697 L 7.63471,-90.1977 L 7.29297,-89.89 L 6.89471,-89.66 L 6.45735,-89.5179 L 6,-89.4699 L 5.54265,-89.5179 M 137.07,-89.5179 L 136.632,-89.66 L 136.234,-89.89 L 135.892,-90.1977 L 135.622,-90.5697 L 135.435,-90.9898 L 135.339,-91.4397 L 135.339,-91.8995 L 135.435,-92.3493 L 135.622,-92.7695 L 135.892,-93.1415 L 136.234,-93.4492 L 136.632,-93.6791 L 137.07,-93.8212 L 137.527,-93.8693 L 137.984,-93.8212 L 138.422,-93.6791 L 138.82,-93.4492 L 139.162,-93.1415 L 139.432,-92.7695 L 139.619,-92.3493 L 139.715,-91.8995 L 139.715,-91.4397 L 139.619,-90.9898 L 139.432,-90.5697 L 139.162,-90.1977 L 138.82,-89.89 L 138.422,-89.66 L 137.984,-89.5179 L 137.527,-89.4699 L 137.07,-89.5179 M 136.027,-63.7196 L 136.027,-82.3529 L 139.027,-82.3529 L 139.027,-63.7196 L 136.027,-63.7196 M 4.5,-63.7196 L 4.5,-82.3529 L 7.5,-82.3529 L 7.5,-63.7196 L 4.5,-63.7196" stroke="#0000ff" fill="none" stroke-width="0.1"/><path d="M 130.113,-115.799 L 130.199,-115.813 L 130.282,-115.835 L 130.363,-115.866 L 130.44,-115.905 L 130.512,-115.952 L 130.579,-116.007 L 130.64,-116.068 L 130.695,-116.135 L 130.742,-116.207 L 130.781,-116.284 L 130.812,-116.365 L 130.834,-116.448 L 130.848,-116.533 L 130.852,-116.62 L 130.848,-116.706 L 130.834,-116.791 L 130.812,-116.875 L 130.781,-116.955 L 130.742,-117.032 L 130.695,-117.104 L 130.64,-117.172 L 130.579,-117.233 L 130.512,-117.287 L 130.44,-117.334 L 130.363,-117.373 L 130.282,-117.404 L 130.199,-117.426 L 130.113,-117.44 L 130.027,-117.445 L 129.941,-117.44 L 129.856,-117.426 L 129.772,-117.404 L 129.692,-117.373 L 129.615,-117.334 L 129.542,-117.287 L 129.475,-117.233 L 129.414,-117.172 L 129.36,-117.104 L 129.313,-117.032 L 129.274,-116.955 L 129.243,-116.875 L 129.22,-116.791 L 129.207,-116.706 L 129.202,-116.62 L 129.207,-116.533 L 129.22,-116.448 L 129.243,-116.365 L 129.274,-116.284 L 129.313,-116.207 L 129.36,-116.135 L 129.414,-116.068 L 129.475,-116.007 L 129.542,-115.952 L 129.615,-115.905 L 129.692,-115.866 L 129.772,-115.835 L 129.856,-115.813 L 129.941,-115.799 L 130.027,-115.795 L 130.113,-115.799 M 130.79,-62.6196 L 129.202,-63.4137 L 129.202,-61.8255 L 130.79,-62.6196 M 140.449,-53.4946 L 139.227,-54.5128 L 139.227,-54.0071 L 136.077,-54.0071 L 136.077,-52.9821 L 139.227,-52.9821 L 139.227,-52.4763 L 140.449,-53.4946" stroke="none" fill="#000000" stroke-width="0.35"/><path d="M 33.4729,-85.8696 L 40.5396,-85.8696 L 40.5396,-88.9696 L 39.1896,-88.9696 L 39.1896,-92.2696 L 40.5396,-92.2696 L 40.5396,-95.8696 L 44.9396,-95.8696 L 44.9396,-92.2696 L 46.2896,-92.2696 L 46.2896,-88.9696 L 44.9396,-88.9696 L 44.9396,-85.8696 L 52.0063,-85.8696 L 52.0063,-82.8696 M 70.7396,-82.8696 L 70.7396,-85.8696 L 74.8396,-85.8696 L 74.8396,-95.3544 L 77.2396,-95.3544 L 77.2396,-97.9544 L 74.8396,-97.9544 L 74.8396,-100.104 L 71.7396,-100.104 L 71.7396,-98.7544 L 68.4396,-98.7544 L 68.4396,-100.104 L 64.8396,-100.104 L 64.8396,-104.504 L 68.4396,-104.504 L 68.4396,-105.854 L 71.7396,-105.854 L 71.7396,-104.504 L 74.8396,-104.504 L 74.8396,-112.639 L 77.2396,-112.639 L 77.2396,-117.739 L 74.8396,-117.739 L 74.8396,-118.739 L 14.7396,-118.739 L 14.7396,-111.754 L 12.3396,-111.754 M 12.3396,-106.654 L 14.7396,-106.654 L 14.7396,-104.504 L 17.8396,-104.504 L 17.8396,-105.854 L 21.1396,-105.854 L 21.1396,-104.504 L 24.7396,-104.504 L 24.7396,-100.104 L 21.1396,-100.104 L 21.1396,-98.7544 L 17.8396,-98.7544 L 17.8396,-100.104 L 14.7396,-100.104 L 14.7396,-97.9544 L 12.3396,-97.9544 M 12.3396,-95.3544 L 14.7396,-95.3544 L 14.7396,-82.8696 L 33.4729,-82.8696 L 33.4729,-85.8696 M 44.5597,-110.602 L 44.1098,-110.697 L 43.6897,-110.884 L 43.3177,-111.154 L 43.01,-111.496 L 42.7801,-111.894 L 42.6379,-112.332 L 42.5899,-112.789 L 42.6379,-113.247 L 42.7801,-113.684 L 43.01,-114.082 L 43.3177,-114.424 L 43.6897,-114.694 L 44.1098,-114.881 L 44.5597,-114.977 L 45.0195,-114.977 L 45.4694,-114.881 L 45.8895,-114.694 L 46.2615,-114.424 L 46.5692,-114.082 L 46.7992,-113.684 L 46.9413,-113.247 L 46.9893,-112.789 L 46.9413,-112.332 L 46.7992,-111.894 L 46.5692,-111.496 L 46.2615,-111.154 L 45.8895,-110.884 L 45.4694,-110.697 L 45.0195,-110.602 L 44.5597,-110.602" stroke="#0000ff" fill="none" stroke-width="0.1"/><path d="M 48.4563,-66.8196 L 63.5396,-66.8196 L 63.5396,-69.2696 L 66.5396,-69.2696 L 66.5396,-77.3696 L 63.5396,-77.3696 L 63.5396,-82.8696 M 70.7396,-82.8696 L 48.4063,-82.8696 L 48.4063,-79.8196 L 33.4729,-79.8196 L 33.4729,-82.8696 M 18.3396,-82.8696 L 18.3396,-77.3696 L 15.3396,-77.3696 L 15.3396,-76.3696 L 12.3396,-76.3696 M 12.3396,-70.2696 L 15.3396,-70.2696 L 15.3396,-69.2696 L 18.3396,-69.2696 L 18.3396,-66.8196 L 33.4229,-66.8196 L 33.4229,-63.7696 M 48.4563,-63.7696 L 48.4563,-66.8196" stroke="#0000ff" fill="none" stroke-width="0.1"/><path d="M 114.389,-66.7696 L 115.389,-66.7696 L 115.389,-69.7696 L 117.839,-69.7696 L 117.839,-84.8529 L 120.889,-84.8529 M 120.889,-99.8863 L 117.839,-99.8863 L 117.839,-114.97 L 115.389,-114.97 L 115.389,-117.97 L 107.289,-117.97 L 107.289,-114.97 L 101.789,-114.97 M 101.789,-99.8363 L 104.839,-99.8363 L 104.839,-84.9029 L 101.789,-84.9029 M 101.789,-69.7696 L 107.289,-69.7696 L 107.289,-66.7696 L 108.289,-66.7696 L 108.289,-63.7696 M 114.389,-63.7696 L 114.389,-66.7696" stroke="#0000ff" fill="none" stroke-width="0.1"/><path d="M 96.2886,-66.7696 L 101.789,-66.7696 M 101.789,-84.9029 L 101.789,-66.7696 M 101.789,-81.9029 L 98.7386,-81.9029 L 98.7386,-96.8363 L 101.789,-96.8363 M 101.789,-114.97 L 101.789,-96.8363 M 101.789,-111.97 L 96.2886,-111.97 L 96.2886,-114.97 L 95.2886,-114.97 L 95.2886,-117.97 L 89.1886,-117.97 L 89.1886,-114.97 L 88.1886,-114.97 L 88.1886,-111.97 L 85.7386,-111.97 L 85.7386,-96.8863 L 82.6886,-96.8863 L 82.6886,-81.8529 L 85.7386,-81.8529 L 85.7386,-66.7696 L 88.1886,-66.7696 L 88.1886,-63.7696 M 96.2886,-63.7696 L 96.2886,-66.7696" stroke="#0000ff" fill="none" stroke-width="0.1"/><path d="M 189.204,-147.477 L 191.604,-147.477 L 191.604,-152.577 L 189.204,-152.577 L 189.204,-160.712 L 186.104,-160.712 L 186.104,-159.362 L 182.804,-159.362 L 182.804,-160.712 L 179.204,-160.712 L 179.204,-165.112 L 182.804,-165.112 L 182.804,-166.462 L 186.104,-166.462 L 186.104,-165.112 L 189.204,-165.112 L 189.204,-167.262 L 191.604,-167.262 L 191.604,-169.862 L 189.204,-169.862 L 189.204,-179.347 L 185.104,-179.347 L 185.104,-182.347 L 166.371,-182.347 L 166.371,-179.347 L 159.304,-179.347 L 159.304,-176.247 L 160.654,-176.247 L 160.654,-172.947 L 159.304,-172.947 L 159.304,-169.347 L 154.904,-169.347 L 154.904,-172.947 L 153.554,-172.947 L 153.554,-176.247 L 154.904,-176.247 L 154.904,-179.347 L 147.838,-179.347 L 147.838,-182.347 L 129.104,-182.347 L 129.104,-169.862 L 126.704,-169.862 L 126.704,-167.262 L 129.104,-167.262 L 129.104,-165.112 L 132.204,-165.112 L 132.204,-166.462 L 135.504,-166.462 L 135.504,-165.112 L 139.104,-165.112 L 139.104,-160.712 L 135.504,-160.712 L 135.504,-159.362 L 132.204,-159.362 L 132.204,-160.712 L 129.104,-160.712 L 129.104,-158.562 L 126.704,-158.562 L 126.704,-153.462 L 129.104,-153.462 L 129.104,-146.477 L 189.204,-146.477 L 189.204,-147.477 M 158.924,-150.239 L 158.475,-150.335 L 158.055,-150.522 L 157.682,-150.792 L 157.375,-151.134 L 157.145,-151.532 L 157.003,-151.97 L 156.955,-152.427 L 157.003,-152.884 L 157.145,-153.322 L 157.375,-153.72 L 157.682,-154.062 L 158.055,-154.332 L 158.475,-154.519 L 158.924,-154.615 L 159.384,-154.615 L 159.834,-154.519 L 160.254,-154.332 L 160.626,-154.062 L 160.934,-153.72 L 161.164,-153.322 L 161.306,-152.884 L 161.354,-152.427 L 161.306,-151.97 L 161.164,-151.532 L 160.934,-151.134 L 160.626,-150.792 L 160.254,-150.522 L 159.834,-150.335 L 159.384,-150.239 L 158.924,-150.239" stroke="#0000ff" fill="none" stroke-width="0.1"/><path d="M 151.283,-153.592 L 151.512,-153.779 L 151.536,-153.577 L 151.796,-153.577 L 151.796,-155.561 L 151.503,-155.561 L 151.503,-154.761 L 151.273,-154.935 L 151.099,-154.971 L 150.882,-154.925 L 150.718,-154.787 L 150.611,-154.566 L 150.574,-154.272 L 150.611,-153.963 L 150.721,-153.736 L 150.885,-153.597 L 151.096,-153.551 L 151.283,-153.592 M 151.051,-153.799 L 150.945,-153.899 L 150.884,-154.049 L 150.865,-154.246 L 150.942,-154.621 L 151.192,-154.757 L 151.38,-154.71 L 151.503,-154.569 L 151.503,-153.952 L 151.378,-153.811 L 151.197,-153.766 L 151.051,-153.799 M 143.615,-153.596 L 143.777,-153.729 L 143.882,-153.948 L 143.918,-154.251 L 143.918,-154.266 L 143.881,-154.573 L 143.775,-154.793 L 143.612,-154.926 L 143.394,-154.971 L 143.216,-154.936 L 142.988,-154.763 L 142.988,-155.561 L 142.696,-155.561 L 142.696,-153.577 L 142.954,-153.577 L 142.977,-153.78 L 143.205,-153.592 L 143.397,-153.551 L 143.615,-153.596 M 143.112,-153.81 L 142.988,-153.952 L 142.988,-154.569 L 143.11,-154.71 L 143.295,-154.755 L 143.441,-154.724 L 143.548,-154.631 L 143.608,-154.48 L 143.626,-154.277 L 143.619,-154.111 L 143.595,-153.984 L 143.487,-153.82 L 143.3,-153.764 L 143.112,-153.81 M 145.123,-153.601 L 145.313,-153.749 L 145.432,-153.996 L 145.473,-154.347 L 145.473,-154.704 L 145.428,-155.043 L 145.308,-155.284 L 145.118,-155.429 L 144.854,-155.478 L 144.59,-155.429 L 144.399,-155.282 L 144.28,-155.036 L 144.238,-154.684 L 144.238,-154.327 L 144.282,-153.987 L 144.403,-153.746 L 144.593,-153.6 L 144.857,-153.551 L 145.123,-153.601 M 144.706,-153.8 L 144.602,-153.907 L 144.547,-154.072 L 144.53,-154.29 L 144.53,-154.775 L 144.55,-154.98 L 144.607,-155.133 L 144.709,-155.231 L 144.854,-155.263 L 145.002,-155.229 L 145.107,-155.127 L 145.163,-154.965 L 145.181,-154.744 L 145.181,-154.271 L 145.162,-154.061 L 145.108,-153.902 L 145.006,-153.799 L 144.857,-153.765 L 144.706,-153.8 M 148.248,-153.571 L 148.398,-153.631 L 148.522,-153.726 L 148.615,-153.854 L 148.673,-154.007 L 148.692,-154.178 L 148.656,-154.434 L 148.552,-154.631 L 148.391,-154.755 L 148.181,-154.797 L 147.981,-154.761 L 147.695,-154.568 L 147.804,-154.925 L 147.946,-155.101 L 148.15,-155.211 L 148.394,-155.249 L 148.394,-155.473 L 148.382,-155.473 L 148.11,-155.439 L 147.878,-155.343 L 147.689,-155.189 L 147.549,-154.983 L 147.462,-154.729 L 147.432,-154.435 L 147.432,-154.3 L 147.478,-153.987 L 147.612,-153.751 L 147.817,-153.601 L 148.08,-153.551 L 148.248,-153.571 M 147.922,-153.798 L 147.811,-153.897 L 147.746,-154.046 L 147.726,-154.231 L 147.726,-154.368 L 147.784,-154.46 L 147.862,-154.527 L 147.957,-154.57 L 148.063,-154.584 L 148.203,-154.555 L 148.313,-154.467 L 148.381,-154.335 L 148.402,-154.174 L 148.381,-154.015 L 148.314,-153.884 L 148.207,-153.795 L 148.07,-153.765 L 147.922,-153.798 M 149.831,-153.57 L 149.982,-153.628 L 150.104,-153.719 L 150.194,-153.842 L 150.249,-153.991 L 150.268,-154.16 L 150.23,-154.424 L 150.121,-154.615 L 149.949,-154.734 L 149.715,-154.775 L 149.576,-154.758 L 149.36,-154.674 L 149.424,-155.225 L 150.204,-155.225 L 150.204,-155.452 L 149.191,-155.452 L 149.088,-154.536 L 149.331,-154.476 L 149.353,-154.497 L 149.467,-154.559 L 149.61,-154.58 L 149.763,-154.555 L 149.882,-154.475 L 149.954,-154.347 L 149.977,-154.183 L 149.957,-154.013 L 149.895,-153.88 L 149.79,-153.794 L 149.651,-153.765 L 149.525,-153.785 L 149.422,-153.847 L 149.352,-153.946 L 149.332,-154.027 L 149.042,-154.027 L 149.057,-153.933 L 149.119,-153.805 L 149.215,-153.699 L 149.341,-153.618 L 149.49,-153.568 L 149.651,-153.551 L 149.831,-153.57 M 142.146,-153.577 L 142.146,-154.005 L 142.369,-154.005 L 142.369,-154.221 L 142.146,-154.221 L 142.146,-155.452 L 141.827,-155.452 L 141.027,-154.189 L 141.04,-154.005 L 141.854,-154.005 L 141.854,-153.577 L 142.146,-153.577 M 141.735,-154.949 L 141.854,-155.155 L 141.854,-154.221 L 141.276,-154.221 L 141.735,-154.949 M 146.689,-153.577 L 146.689,-155.449 L 145.929,-155.176 L 145.929,-154.961 L 146.397,-155.106 L 146.397,-153.577 L 146.689,-153.577 M 136.247,-153.577 L 136.247,-154.508 L 136.379,-154.647 L 136.584,-154.689 L 136.658,-154.686 L 136.68,-154.683 L 136.684,-154.965 L 136.669,-154.968 L 136.618,-154.972 L 136.454,-154.927 L 136.243,-154.701 L 136.228,-154.944 L 135.955,-154.944 L 135.955,-153.577 L 136.247,-153.577 M 137.732,-153.567 L 137.88,-153.616 L 138.004,-153.693 L 138.072,-153.766 L 137.942,-153.912 L 137.817,-153.811 L 137.595,-153.765 L 137.442,-153.79 L 137.317,-153.865 L 137.23,-153.982 L 137.17,-154.184 L 138.121,-154.184 L 138.121,-154.291 L 138.08,-154.587 L 137.96,-154.798 L 137.774,-154.927 L 137.523,-154.972 L 137.348,-154.95 L 137.193,-154.885 L 137.066,-154.78 L 136.97,-154.637 L 136.91,-154.462 L 136.889,-154.261 L 136.889,-154.23 L 136.938,-153.948 L 137.078,-153.735 L 137.293,-153.597 L 137.569,-153.551 L 137.732,-153.567 M 137.228,-154.551 L 137.297,-154.661 L 137.397,-154.732 L 137.522,-154.756 L 137.652,-154.735 L 137.752,-154.669 L 137.815,-154.565 L 137.836,-154.437 L 137.836,-154.351 L 137.176,-154.351 L 137.228,-154.551 M 139.077,-153.577 L 139.538,-154.944 L 139.236,-154.944 L 138.925,-153.818 L 138.615,-154.944 L 138.313,-154.944 L 138.774,-153.577 L 139.077,-153.577 M 139.866,-153.574 L 139.92,-153.607 L 139.955,-153.656 L 139.966,-153.719 L 139.954,-153.784 L 139.919,-153.834 L 139.865,-153.867 L 139.795,-153.879 L 139.726,-153.867 L 139.672,-153.834 L 139.637,-153.784 L 139.625,-153.719 L 139.637,-153.656 L 139.671,-153.607 L 139.725,-153.574 L 139.795,-153.562 L 139.866,-153.574 M 150.092,-150.588 L 150.297,-150.698 L 150.427,-150.865 L 150.471,-151.082 L 150.453,-151.218 L 150.399,-151.334 L 150.307,-151.426 L 150.089,-151.538 L 150.281,-151.655 L 150.367,-151.746 L 150.422,-151.852 L 150.44,-151.965 L 150.4,-152.18 L 150.28,-152.34 L 150.086,-152.443 L 149.821,-152.479 L 149.66,-152.463 L 149.513,-152.414 L 149.391,-152.338 L 149.301,-152.24 L 149.245,-152.123 L 149.233,-152.041 L 149.527,-152.041 L 149.54,-152.102 L 149.611,-152.19 L 149.712,-152.246 L 149.832,-152.264 L 149.96,-152.244 L 150.063,-152.184 L 150.129,-152.086 L 150.15,-151.961 L 150.129,-151.832 L 150.063,-151.726 L 149.953,-151.659 L 149.81,-151.638 L 149.647,-151.638 L 149.647,-151.432 L 149.812,-151.432 L 150.087,-151.348 L 150.182,-151.091 L 150.158,-150.956 L 150.086,-150.853 L 149.973,-150.787 L 149.832,-150.766 L 149.703,-150.786 L 149.593,-150.848 L 149.517,-150.946 L 149.502,-151.018 L 149.212,-151.018 L 149.245,-150.859 L 149.372,-150.695 L 149.57,-150.587 L 149.822,-150.551 L 150.092,-150.588 M 137.192,-150.577 L 137.192,-150.793 L 136.277,-150.793 L 136.805,-151.35 L 136.959,-151.535 L 137.057,-151.693 L 137.111,-151.833 L 137.128,-151.968 L 137.089,-152.186 L 136.976,-152.344 L 136.791,-152.444 L 136.535,-152.479 L 136.359,-152.459 L 136.203,-152.4 L 136.074,-152.307 L 135.979,-152.185 L 135.92,-152.04 L 135.906,-151.931 L 136.199,-151.931 L 136.214,-152.031 L 136.28,-152.155 L 136.389,-152.237 L 136.528,-152.264 L 136.657,-152.242 L 136.757,-152.172 L 136.817,-152.065 L 136.836,-151.93 L 136.818,-151.817 L 136.766,-151.703 L 136.682,-151.581 L 136.565,-151.443 L 135.939,-150.776 L 135.939,-150.577 L 137.192,-150.577 M 140.38,-150.577 L 140.38,-150.793 L 139.464,-150.793 L 139.992,-151.35 L 140.146,-151.535 L 140.245,-151.693 L 140.298,-151.833 L 140.315,-151.968 L 140.276,-152.186 L 140.163,-152.344 L 139.978,-152.444 L 139.722,-152.479 L 139.546,-152.459 L 139.39,-152.4 L 139.262,-152.307 L 139.166,-152.185 L 139.107,-152.04 L 139.093,-151.931 L 139.387,-151.931 L 139.401,-152.031 L 139.468,-152.155 L 139.576,-152.237 L 139.716,-152.264 L 139.845,-152.242 L 139.944,-152.172 L 140.004,-152.065 L 140.023,-151.93 L 140.005,-151.817 L 139.953,-151.703 L 139.869,-151.581 L 139.752,-151.443 L 139.126,-150.776 L 139.126,-150.577 L 140.38,-150.577 M 138.412,-150.601 L 138.602,-150.749 L 138.72,-150.996 L 138.761,-151.347 L 138.761,-151.704 L 138.717,-152.043 L 138.597,-152.284 L 138.407,-152.429 L 138.143,-152.478 L 137.879,-152.429 L 137.688,-152.282 L 137.568,-152.036 L 137.527,-151.684 L 137.527,-151.327 L 137.571,-150.987 L 137.691,-150.746 L 137.882,-150.6 L 138.146,-150.551 L 138.412,-150.601 M 137.995,-150.8 L 137.891,-150.907 L 137.836,-151.072 L 137.819,-151.29 L 137.819,-151.775 L 137.839,-151.98 L 137.896,-152.133 L 137.998,-152.231 L 138.143,-152.263 L 138.291,-152.229 L 138.396,-152.127 L 138.452,-151.965 L 138.47,-151.744 L 138.47,-151.271 L 138.451,-151.061 L 138.397,-150.902 L 138.295,-150.799 L 138.145,-150.765 L 137.995,-150.8 M 144.27,-150.601 L 144.46,-150.749 L 144.578,-150.996 L 144.62,-151.347 L 144.62,-151.704 L 144.575,-152.043 L 144.455,-152.284 L 144.265,-152.429 L 144.001,-152.478 L 143.737,-152.429 L 143.546,-152.282 L 143.427,-152.036 L 143.385,-151.684 L 143.385,-151.327 L 143.429,-150.987 L 143.549,-150.746 L 143.74,-150.6 L 144.004,-150.551 L 144.27,-150.601 M 143.853,-150.8 L 143.749,-150.907 L 143.694,-151.072 L 143.677,-151.29 L 143.677,-151.775 L 143.697,-151.98 L 143.754,-152.133 L 143.856,-152.231 L 144.001,-152.263 L 144.149,-152.229 L 144.254,-152.127 L 144.31,-151.965 L 144.328,-151.744 L 144.328,-151.271 L 144.309,-151.061 L 144.255,-150.902 L 144.153,-150.799 L 144.003,-150.765 L 143.853,-150.8 M 148.534,-150.601 L 148.724,-150.749 L 148.843,-150.996 L 148.884,-151.347 L 148.884,-151.704 L 148.84,-152.043 L 148.719,-152.284 L 148.529,-152.429 L 148.265,-152.478 L 148.001,-152.429 L 147.811,-152.282 L 147.691,-152.036 L 147.649,-151.684 L 147.649,-151.327 L 147.694,-150.987 L 147.814,-150.746 L 148.004,-150.6 L 148.268,-150.551 L 148.534,-150.601 M 148.117,-150.8 L 148.013,-150.907 L 147.958,-151.072 L 147.941,-151.29 L 147.941,-151.775 L 147.962,-151.98 L 148.018,-152.133 L 148.121,-152.231 L 148.265,-152.263 L 148.414,-152.229 L 148.518,-152.127 L 148.574,-151.965 L 148.592,-151.744 L 148.592,-151.271 L 148.573,-151.061 L 148.519,-150.902 L 148.417,-150.799 L 148.268,-150.765 L 148.117,-150.8 M 141.537,-150.571 L 141.687,-150.631 L 141.811,-150.726 L 141.904,-150.854 L 141.962,-151.007 L 141.981,-151.178 L 141.945,-151.434 L 141.84,-151.631 L 141.68,-151.755 L 141.47,-151.797 L 141.27,-151.761 L 140.984,-151.568 L 141.092,-151.925 L 141.235,-152.101 L 141.439,-152.211 L 141.683,-152.249 L 141.683,-152.473 L 141.671,-152.473 L 141.399,-152.439 L 141.167,-152.343 L 140.978,-152.189 L 140.838,-151.983 L 140.751,-151.729 L 140.721,-151.435 L 140.721,-151.3 L 140.767,-150.987 L 140.901,-150.751 L 141.105,-150.601 L 141.369,-150.551 L 141.537,-150.571 M 141.211,-150.798 L 141.1,-150.897 L 141.035,-151.046 L 141.014,-151.231 L 141.014,-151.368 L 141.073,-151.46 L 141.151,-151.527 L 141.246,-151.57 L 141.352,-151.584 L 141.492,-151.555 L 141.602,-151.467 L 141.67,-151.335 L 141.691,-151.174 L 141.67,-151.015 L 141.603,-150.884 L 141.495,-150.795 L 141.359,-150.765 L 141.211,-150.798 M 145.79,-150.57 L 145.942,-150.628 L 146.063,-150.719 L 146.153,-150.842 L 146.209,-150.991 L 146.228,-151.16 L 146.19,-151.424 L 146.08,-151.615 L 145.908,-151.734 L 145.675,-151.775 L 145.535,-151.758 L 145.32,-151.674 L 145.383,-152.225 L 146.163,-152.225 L 146.163,-152.452 L 145.151,-152.452 L 145.047,-151.536 L 145.29,-151.476 L 145.313,-151.497 L 145.426,-151.559 L 145.569,-151.58 L 145.722,-151.555 L 145.841,-151.475 L 145.914,-151.347 L 145.937,-151.183 L 145.917,-151.013 L 145.855,-150.88 L 145.749,-150.794 L 145.611,-150.765 L 145.484,-150.785 L 145.382,-150.847 L 145.312,-150.946 L 145.291,-151.027 L 145.001,-151.027 L 145.017,-150.933 L 145.078,-150.805 L 145.174,-150.699 L 145.3,-150.618 L 145.449,-150.568 L 145.611,-150.551 L 145.79,-150.57 M 147.256,-151.265 L 147.256,-151.481 L 146.593,-151.481 L 146.593,-151.265 L 147.256,-151.265 M 142.992,-151.265 L 142.992,-151.481 L 142.328,-151.481 L 142.328,-151.265 L 142.992,-151.265 M 170.395,-147.577 L 170.395,-148.756 L 170.687,-148.756 L 170.687,-148.944 L 170.395,-148.944 L 170.395,-149.103 L 170.474,-149.305 L 170.705,-149.371 L 170.819,-149.367 L 170.978,-149.353 L 170.978,-147.577 L 171.271,-147.577 L 171.271,-149.55 L 170.922,-149.578 L 170.659,-149.589 L 170.418,-149.556 L 170.246,-149.463 L 170.141,-149.314 L 170.102,-149.104 L 170.102,-148.944 L 169.884,-148.944 L 169.884,-148.756 L 170.102,-148.756 L 170.102,-147.577 L 170.395,-147.577 M 167.897,-147.577 L 167.897,-149.561 L 167.604,-149.561 L 167.604,-147.577 L 167.897,-147.577 M 158.401,-147.596 L 158.563,-147.729 L 158.667,-147.948 L 158.704,-148.251 L 158.704,-148.266 L 158.667,-148.573 L 158.561,-148.793 L 158.397,-148.926 L 158.18,-148.971 L 158.001,-148.936 L 157.773,-148.763 L 157.773,-149.561 L 157.481,-149.561 L 157.481,-147.577 L 157.739,-147.577 L 157.762,-147.78 L 157.99,-147.592 L 158.183,-147.551 L 158.401,-147.596 M 157.897,-147.81 L 157.773,-147.952 L 157.773,-148.569 L 157.896,-148.71 L 158.08,-148.755 L 158.226,-148.724 L 158.333,-148.631 L 158.393,-148.48 L 158.412,-148.277 L 158.404,-148.111 L 158.381,-147.984 L 158.273,-147.82 L 158.085,-147.764 L 157.897,-147.81 M 143.244,-147.596 L 143.406,-147.729 L 143.51,-147.948 L 143.547,-148.251 L 143.547,-148.266 L 143.51,-148.573 L 143.404,-148.793 L 143.24,-148.926 L 143.023,-148.971 L 142.844,-148.936 L 142.616,-148.763 L 142.616,-149.561 L 142.324,-149.561 L 142.324,-147.577 L 142.582,-147.577 L 142.605,-147.78 L 142.833,-147.592 L 143.026,-147.551 L 143.244,-147.596 M 142.74,-147.81 L 142.616,-147.952 L 142.616,-148.569 L 142.739,-148.71 L 142.923,-148.755 L 143.069,-148.724 L 143.176,-148.631 L 143.236,-148.48 L 143.255,-148.277 L 143.247,-148.111 L 143.223,-147.984 L 143.116,-147.82 L 142.928,-147.764 L 142.74,-147.81 M 139.498,-147.577 L 139.498,-148.591 L 139.624,-148.716 L 139.796,-148.754 L 139.923,-148.736 L 140.016,-148.678 L 140.067,-148.581 L 140.082,-148.46 L 140.082,-147.577 L 140.374,-147.577 L 140.374,-148.46 L 140.259,-148.846 L 139.936,-148.97 L 139.746,-148.929 L 139.498,-148.731 L 139.498,-149.561 L 139.206,-149.561 L 139.206,-147.577 L 139.498,-147.577 M 137.779,-149.233 L 137.832,-149.265 L 137.865,-149.312 L 137.876,-149.374 L 137.865,-149.435 L 137.832,-149.482 L 137.78,-149.514 L 137.707,-149.526 L 137.634,-149.514 L 137.582,-149.482 L 137.55,-149.435 L 137.539,-149.374 L 137.55,-149.312 L 137.583,-149.265 L 137.636,-149.233 L 137.707,-149.221 L 137.779,-149.233 M 168.559,-149.233 L 168.611,-149.265 L 168.644,-149.312 L 168.656,-149.374 L 168.644,-149.435 L 168.612,-149.482 L 168.559,-149.514 L 168.487,-149.526 L 168.413,-149.514 L 168.361,-149.482 L 168.329,-149.435 L 168.318,-149.374 L 168.329,-149.312 L 168.362,-149.265 L 168.415,-149.233 L 168.487,-149.221 L 168.559,-149.233 M 163.591,-147.408 L 164.284,-149.452 L 164.098,-149.452 L 163.405,-147.408 L 163.591,-147.408 M 150.157,-147.408 L 150.85,-149.452 L 150.664,-149.452 L 149.971,-147.408 L 150.157,-147.408 M 162.796,-147.577 L 162.796,-149.449 L 162.036,-149.176 L 162.036,-148.961 L 162.504,-149.106 L 162.504,-147.577 L 162.796,-147.577 M 169.617,-147.559 L 169.691,-147.575 L 169.691,-147.776 L 169.624,-147.773 L 169.536,-147.783 L 169.469,-147.823 L 169.435,-147.891 L 169.426,-147.972 L 169.426,-148.756 L 169.676,-148.756 L 169.676,-148.944 L 169.426,-148.944 L 169.426,-149.305 L 169.134,-149.305 L 169.134,-148.944 L 168.919,-148.944 L 168.919,-148.756 L 169.134,-148.756 L 169.134,-147.925 L 169.232,-147.644 L 169.51,-147.551 L 169.617,-147.559 M 157.103,-147.559 L 157.178,-147.575 L 157.178,-147.776 L 157.111,-147.773 L 157.022,-147.783 L 156.955,-147.823 L 156.921,-147.891 L 156.912,-147.972 L 156.912,-148.756 L 157.163,-148.756 L 157.163,-148.944 L 156.912,-148.944 L 156.912,-149.305 L 156.62,-149.305 L 156.62,-148.944 L 156.406,-148.944 L 156.406,-148.756 L 156.62,-148.756 L 156.62,-147.925 L 156.718,-147.644 L 156.997,-147.551 L 157.103,-147.559 M 156.165,-147.559 L 156.239,-147.575 L 156.239,-147.776 L 156.172,-147.773 L 156.084,-147.783 L 156.017,-147.823 L 155.983,-147.891 L 155.973,-147.972 L 155.973,-148.756 L 156.224,-148.756 L 156.224,-148.944 L 155.973,-148.944 L 155.973,-149.305 L 155.681,-149.305 L 155.681,-148.944 L 155.467,-148.944 L 155.467,-148.756 L 155.681,-148.756 L 155.681,-147.925 L 155.78,-147.644 L 156.058,-147.551 L 156.165,-147.559 M 138.838,-147.559 L 138.912,-147.575 L 138.912,-147.776 L 138.845,-147.773 L 138.757,-147.783 L 138.689,-147.823 L 138.655,-147.891 L 138.646,-147.972 L 138.646,-148.756 L 138.897,-148.756 L 138.897,-148.944 L 138.646,-148.944 L 138.646,-149.305 L 138.354,-149.305 L 138.354,-148.944 L 138.14,-148.944 L 138.14,-148.756 L 138.354,-148.756 L 138.354,-147.925 L 138.453,-147.644 L 138.731,-147.551 L 138.838,-147.559 M 172.274,-147.587 L 172.491,-147.744 L 172.522,-147.601 L 172.532,-147.577 L 172.832,-147.577 L 172.801,-147.673 L 172.785,-147.864 L 172.785,-148.498 L 172.748,-148.702 L 172.642,-148.847 L 172.473,-148.94 L 172.244,-148.972 L 172.085,-148.957 L 171.942,-148.914 L 171.826,-148.847 L 171.741,-148.761 L 171.689,-148.661 L 171.68,-148.605 L 171.972,-148.605 L 171.98,-148.649 L 172.036,-148.723 L 172.121,-148.768 L 172.225,-148.782 L 172.341,-148.764 L 172.428,-148.706 L 172.477,-148.616 L 172.492,-148.512 L 172.492,-148.374 L 172.264,-148.374 L 171.986,-148.343 L 171.792,-148.257 L 171.678,-148.123 L 171.64,-147.94 L 171.671,-147.787 L 171.764,-147.663 L 171.908,-147.579 L 172.087,-147.551 L 172.274,-147.587 M 172.076,-147.764 L 171.998,-147.81 L 171.947,-147.881 L 171.93,-147.965 L 171.933,-148.006 L 172.037,-148.188 L 172.29,-148.245 L 172.492,-148.245 L 172.492,-147.926 L 172.432,-147.848 L 172.357,-147.794 L 172.269,-147.761 L 172.173,-147.75 L 172.076,-147.764 M 151.899,-147.58 L 152.08,-147.665 L 152.194,-147.792 L 152.231,-147.947 L 152.163,-148.156 L 151.95,-148.298 L 151.847,-148.33 L 151.713,-148.361 L 151.583,-148.394 L 151.488,-148.437 L 151.426,-148.499 L 151.404,-148.583 L 151.422,-148.669 L 151.477,-148.738 L 151.56,-148.78 L 151.663,-148.793 L 151.78,-148.777 L 151.868,-148.725 L 151.92,-148.644 L 151.929,-148.599 L 152.216,-148.599 L 152.19,-148.717 L 152.079,-148.851 L 151.901,-148.941 L 151.664,-148.972 L 151.443,-148.941 L 151.272,-148.852 L 151.165,-148.722 L 151.131,-148.571 L 151.246,-148.325 L 151.618,-148.168 L 151.754,-148.133 L 151.858,-148.089 L 151.928,-148.024 L 151.953,-147.934 L 151.933,-147.847 L 151.874,-147.78 L 151.786,-147.74 L 151.673,-147.728 L 151.55,-147.744 L 151.449,-147.794 L 151.38,-147.879 L 151.364,-147.944 L 151.091,-147.944 L 151.101,-147.881 L 151.155,-147.776 L 151.242,-147.683 L 151.359,-147.612 L 151.502,-147.566 L 151.665,-147.551 L 151.899,-147.58 M 165.333,-147.58 L 165.514,-147.665 L 165.628,-147.792 L 165.665,-147.947 L 165.597,-148.156 L 165.385,-148.298 L 165.282,-148.33 L 165.148,-148.361 L 165.018,-148.394 L 164.923,-148.437 L 164.86,-148.499 L 164.838,-148.583 L 164.857,-148.669 L 164.912,-148.738 L 164.994,-148.78 L 165.098,-148.793 L 165.214,-148.777 L 165.302,-148.725 L 165.355,-148.644 L 165.363,-148.599 L 165.651,-148.599 L 165.625,-148.717 L 165.514,-148.851 L 165.335,-148.941 L 165.099,-148.972 L 164.877,-148.941 L 164.707,-148.852 L 164.599,-148.722 L 164.565,-148.571 L 164.681,-148.325 L 165.052,-148.168 L 165.188,-148.133 L 165.292,-148.089 L 165.363,-148.024 L 165.388,-147.934 L 165.367,-147.847 L 165.309,-147.78 L 165.22,-147.74 L 165.108,-147.728 L 164.985,-147.744 L 164.884,-147.794 L 164.814,-147.879 L 164.799,-147.944 L 164.525,-147.944 L 164.535,-147.881 L 164.589,-147.776 L 164.677,-147.683 L 164.793,-147.612 L 164.936,-147.566 L 165.099,-147.551 L 165.333,-147.58 M 146.994,-147.599 L 147.197,-147.739 L 147.328,-147.959 L 147.373,-148.249 L 147.37,-148.34 L 147.31,-148.606 L 147.175,-148.804 L 146.977,-148.929 L 146.725,-148.972 L 146.542,-148.95 L 146.385,-148.885 L 146.257,-148.781 L 146.162,-148.642 L 146.103,-148.47 L 146.083,-148.272 L 146.083,-148.261 L 146.128,-147.961 L 146.259,-147.739 L 146.463,-147.598 L 146.728,-147.551 L 146.994,-147.599 M 146.576,-147.798 L 146.462,-147.896 L 146.395,-148.049 L 146.374,-148.246 L 146.395,-148.462 L 146.462,-148.623 L 146.575,-148.723 L 146.726,-148.756 L 146.878,-148.723 L 146.992,-148.623 L 147.06,-148.47 L 147.081,-148.275 L 147.06,-148.055 L 146.992,-147.895 L 146.878,-147.797 L 146.728,-147.765 L 146.576,-147.798 M 154.884,-147.599 L 155.087,-147.739 L 155.218,-147.959 L 155.263,-148.249 L 155.26,-148.34 L 155.2,-148.606 L 155.065,-148.804 L 154.867,-148.929 L 154.614,-148.972 L 154.432,-148.95 L 154.274,-148.885 L 154.146,-148.781 L 154.052,-148.642 L 153.993,-148.47 L 153.972,-148.272 L 153.972,-148.261 L 154.018,-147.961 L 154.149,-147.739 L 154.352,-147.598 L 154.618,-147.551 L 154.884,-147.599 M 154.466,-147.798 L 154.352,-147.896 L 154.285,-148.049 L 154.264,-148.246 L 154.285,-148.462 L 154.351,-148.623 L 154.465,-148.723 L 154.616,-148.756 L 154.768,-148.723 L 154.882,-148.623 L 154.95,-148.47 L 154.971,-148.275 L 154.95,-148.055 L 154.882,-147.895 L 154.768,-147.797 L 154.618,-147.765 L 154.466,-147.798 M 159.835,-147.567 L 159.983,-147.616 L 160.107,-147.693 L 160.175,-147.766 L 160.045,-147.912 L 159.92,-147.811 L 159.697,-147.765 L 159.545,-147.79 L 159.42,-147.865 L 159.332,-147.982 L 159.273,-148.184 L 160.224,-148.184 L 160.224,-148.291 L 160.183,-148.587 L 160.063,-148.798 L 159.877,-148.927 L 159.626,-148.972 L 159.451,-148.95 L 159.296,-148.885 L 159.168,-148.78 L 159.073,-148.637 L 159.013,-148.462 L 158.992,-148.261 L 158.992,-148.23 L 159.041,-147.948 L 159.181,-147.735 L 159.396,-147.597 L 159.672,-147.551 L 159.835,-147.567 M 159.331,-148.551 L 159.4,-148.661 L 159.5,-148.732 L 159.625,-148.756 L 159.755,-148.735 L 159.855,-148.669 L 159.918,-148.565 L 159.939,-148.437 L 159.939,-148.351 L 159.279,-148.351 L 159.331,-148.551 M 145.412,-147.566 L 145.547,-147.614 L 145.66,-147.689 L 145.746,-147.789 L 145.8,-147.906 L 145.812,-147.985 L 145.543,-147.985 L 145.53,-147.924 L 145.466,-147.838 L 145.371,-147.783 L 145.254,-147.765 L 145.11,-147.795 L 145.003,-147.885 L 144.944,-148.035 L 144.926,-148.239 L 144.926,-148.284 L 144.944,-148.486 L 145.004,-148.635 L 145.11,-148.726 L 145.252,-148.756 L 145.372,-148.734 L 145.469,-148.669 L 145.531,-148.57 L 145.544,-148.498 L 145.81,-148.498 L 145.779,-148.663 L 145.666,-148.828 L 145.49,-148.935 L 145.26,-148.971 L 144.998,-148.924 L 144.802,-148.786 L 144.677,-148.567 L 144.634,-148.275 L 144.634,-148.257 L 144.678,-147.955 L 144.804,-147.735 L 145,-147.598 L 145.264,-147.551 L 145.412,-147.566 M 153.302,-147.566 L 153.437,-147.614 L 153.55,-147.689 L 153.636,-147.789 L 153.69,-147.906 L 153.702,-147.985 L 153.433,-147.985 L 153.42,-147.924 L 153.356,-147.838 L 153.26,-147.783 L 153.144,-147.765 L 153,-147.795 L 152.893,-147.885 L 152.834,-148.035 L 152.816,-148.239 L 152.816,-148.284 L 152.834,-148.486 L 152.894,-148.635 L 153,-148.726 L 153.142,-148.756 L 153.262,-148.734 L 153.358,-148.669 L 153.421,-148.57 L 153.434,-148.498 L 153.7,-148.498 L 153.669,-148.663 L 153.556,-148.828 L 153.38,-148.935 L 153.15,-148.971 L 152.888,-148.924 L 152.692,-148.786 L 152.567,-148.567 L 152.524,-148.275 L 152.524,-148.257 L 152.567,-147.955 L 152.693,-147.735 L 152.89,-147.598 L 153.154,-147.551 L 153.302,-147.566 M 148.006,-147.577 L 148.006,-148.585 L 148.128,-148.714 L 148.295,-148.754 L 148.418,-148.737 L 148.507,-148.681 L 148.555,-148.586 L 148.569,-148.465 L 148.569,-147.577 L 148.861,-147.577 L 148.859,-148.552 L 148.975,-148.705 L 149.15,-148.754 L 149.276,-148.737 L 149.364,-148.68 L 149.411,-148.586 L 149.425,-148.466 L 149.425,-147.577 L 149.718,-147.577 L 149.718,-148.462 L 149.69,-148.694 L 149.612,-148.85 L 149.485,-148.94 L 149.297,-148.971 L 149.066,-148.92 L 148.851,-148.728 L 148.678,-148.921 L 148.465,-148.971 L 148.249,-148.928 L 148.001,-148.734 L 147.986,-148.944 L 147.714,-148.944 L 147.714,-147.577 L 148.006,-147.577 M 136.673,-147.018 L 136.834,-147.07 L 136.963,-147.154 L 137.059,-147.268 L 137.119,-147.409 L 137.139,-147.579 L 137.139,-148.944 L 136.878,-148.944 L 136.857,-148.762 L 136.635,-148.934 L 136.442,-148.971 L 136.22,-148.924 L 136.049,-148.784 L 135.937,-148.562 L 135.898,-148.269 L 135.898,-148.259 L 135.937,-147.963 L 136.051,-147.739 L 136.222,-147.598 L 136.44,-147.551 L 136.619,-147.586 L 136.846,-147.752 L 136.846,-147.571 L 136.822,-147.421 L 136.745,-147.301 L 136.622,-147.228 L 136.465,-147.204 L 136.252,-147.249 L 136.121,-147.348 L 136.004,-147.186 L 136.064,-147.129 L 136.189,-147.06 L 136.335,-147.015 L 136.484,-147 L 136.673,-147.018 M 136.391,-147.8 L 136.279,-147.901 L 136.211,-148.052 L 136.19,-148.243 L 136.211,-148.457 L 136.279,-148.618 L 136.393,-148.72 L 136.542,-148.755 L 136.718,-148.716 L 136.846,-148.59 L 136.846,-147.931 L 136.718,-147.805 L 136.539,-147.766 L 136.391,-147.8 M 166.311,-147.013 L 166.311,-147.753 L 166.54,-147.586 L 166.72,-147.551 L 166.933,-147.597 L 167.096,-147.736 L 167.203,-147.957 L 167.24,-148.251 L 167.24,-148.265 L 167.204,-148.569 L 167.099,-148.79 L 166.937,-148.926 L 166.718,-148.971 L 166.532,-148.933 L 166.305,-148.754 L 166.287,-148.944 L 166.019,-148.944 L 166.019,-147.013 L 166.311,-147.013 M 166.435,-147.807 L 166.311,-147.942 L 166.311,-148.582 L 166.433,-148.714 L 166.615,-148.755 L 166.761,-148.721 L 166.868,-148.621 L 166.929,-148.47 L 166.949,-148.274 L 166.873,-147.898 L 166.625,-147.763 L 166.435,-147.807 M 173.478,-147.013 L 173.478,-147.753 L 173.707,-147.586 L 173.887,-147.551 L 174.1,-147.597 L 174.263,-147.736 L 174.37,-147.957 L 174.407,-148.251 L 174.407,-148.265 L 174.371,-148.569 L 174.266,-148.79 L 174.104,-148.926 L 173.885,-148.971 L 173.699,-148.933 L 173.472,-148.754 L 173.454,-148.944 L 173.186,-148.944 L 173.186,-147.013 L 173.478,-147.013 M 173.602,-147.807 L 173.478,-147.942 L 173.478,-148.582 L 173.6,-148.714 L 173.782,-148.755 L 173.928,-148.721 L 174.035,-148.621 L 174.096,-148.47 L 174.116,-148.274 L 174.04,-147.898 L 173.792,-147.763 L 173.602,-147.807 M 168.633,-147.577 L 168.633,-148.944 L 168.34,-148.944 L 168.34,-147.577 L 168.633,-147.577 M 161.614,-147.577 L 161.614,-147.793 L 160.846,-147.793 L 161.593,-148.779 L 161.593,-148.944 L 160.517,-148.944 L 160.517,-148.727 L 161.237,-148.727 L 160.496,-147.749 L 160.496,-147.577 L 161.614,-147.577 M 141.405,-147.591 L 141.642,-147.772 L 141.656,-147.577 L 141.929,-147.577 L 141.929,-148.944 L 141.635,-148.944 L 141.635,-147.935 L 141.504,-147.806 L 141.307,-147.766 L 141.114,-147.836 L 141.052,-148.039 L 141.052,-148.944 L 140.76,-148.944 L 140.76,-148.037 L 140.792,-147.819 L 140.875,-147.671 L 141.008,-147.582 L 141.197,-147.551 L 141.405,-147.591 M 137.854,-147.577 L 137.854,-148.944 L 137.561,-148.944 L 137.561,-147.577 L 137.854,-147.577 M 144.151,-147.574 L 144.205,-147.607 L 144.239,-147.656 L 144.251,-147.719 L 144.239,-147.784 L 144.204,-147.834 L 144.15,-147.867 L 144.08,-147.879 L 144.01,-147.867 L 143.956,-147.834 L 143.921,-147.784 L 143.909,-147.719 L 143.921,-147.656 L 143.956,-147.607 L 144.009,-147.574 L 144.08,-147.562 L 144.151,-147.574" stroke="none" fill="#000000" stroke-width="0.35"/><path d="M 189.047,-2.95 L 190.047,-2.95 L 190.047,-5.95 L 192.497,-5.95 L 192.497,-21.0333 L 195.547,-21.0333 L 195.547,-36.0667 L 192.497,-36.0667 L 192.497,-51.15 L 190.047,-51.15 L 190.047,-54.15 M 181.947,-54.15 L 181.947,-51.15 L 176.447,-51.15 M 176.447,-36.0167 L 179.497,-36.0167 L 179.497,-21.0833 L 176.447,-21.0833 M 176.447,-5.95 L 181.947,-5.95 L 181.947,-2.95 L 182.947,-2.95 L 182.947,0.05 L 189.047,0.05 L 189.047,-2.95" stroke="#0000ff" fill="none" stroke-width="0.1"/><path d="M 185.616,-54.2164 L 186.222,-54.4134 L 186.774,-54.7323 L 187.248,-55.159 L 187.623,-55.6749 L 187.882,-56.2574 L 188.015,-56.8812 L 188.015,-59.2 L 182.189,-59.2 L 182.189,-62.2 L 188.015,-62.2 L 188.015,-78.8 L 182.189,-78.8 L 182.189,-81.8 L 188.015,-81.8 L 188.015,-84.1188 L 187.882,-84.7426 L 187.623,-85.3251 L 187.248,-85.841 L 186.774,-86.2677 L 186.222,-86.5866 L 185.616,-86.7836 L 184.984,-86.85 L 176.447,-86.85 M 190.047,-54.15 L 176.447,-54.15 M 184.984,-54.15 L 185.616,-54.2164" stroke="#0000ff" fill="none" stroke-width="0.1"/><path d="M 185.616,-86.9164 L 186.222,-87.1134 L 186.774,-87.4323 L 187.248,-87.859 L 187.623,-88.3749 L 187.882,-88.9574 L 188.015,-89.5812 L 188.015,-91.9 L 182.189,-91.9 L 182.189,-94.9 L 188.015,-94.9 L 188.015,-111.5 L 182.189,-111.5 L 182.189,-114.5 L 188.015,-114.5 L 188.015,-116.819 L 187.882,-117.443 L 187.623,-118.025 L 187.248,-118.541 L 186.774,-118.968 L 186.222,-119.287 L 185.616,-119.484 L 184.984,-119.55 L 176.447,-119.55 M 184.984,-86.85 L 185.616,-86.9164" stroke="#0000ff" fill="none" stroke-width="0.1"/><path d="M 36.1837,-136.184 L 39.2944,-136.677 L 42.3365,-137.492 L 45.2768,-138.621 L 48.0829,-140.051 L 50.7243,-141.766 L 53.1718,-143.748 L 55.3988,-145.975 L 57.3808,-148.423 L 59.0961,-151.064 L 60.526,-153.87 L 61.6546,-156.81 L 62.4697,-159.852 L 62.9624,-162.963 L 63.1273,-166.108 L 62.9624,-169.253 L 62.4697,-172.364 L 61.6546,-175.406 L 60.526,-178.346 L 59.0961,-181.153 L 57.3808,-183.794 L 55.3988,-186.241 L 53.1718,-188.468 L 50.7243,-190.45 L 48.0829,-192.166 L 45.2768,-193.596 L 42.3365,-194.724 L 39.2944,-195.539 L 36.1837,-196.032 L 33.0386,-196.197 L 29.8935,-196.032 L 26.7828,-195.539 L 23.7407,-194.724 L 20.8004,-193.596 L 17.9943,-192.166 L 15.3529,-190.45 L 12.9053,-188.468 L 10.6784,-186.241 L 8.69635,-183.794 L 6.98105,-181.153 L 5.55123,-178.346 L 4.42258,-175.406 L 3.60744,-172.364 L 3.11476,-169.253 L 2.94993,-166.108 L 3.11476,-162.963 L 3.60744,-159.852 L 4.42258,-156.81 L 5.55123,-153.87 L 6.98105,-151.064 L 8.69635,-148.423 L 10.6784,-145.975 L 12.9053,-143.748 L 15.3529,-141.766 L 17.9943,-140.051 L 20.8004,-138.621 L 23.7407,-137.492 L 26.7828,-136.677 L 29.8935,-136.184 L 33.0386,-136.02 L 36.1837,-136.184 M 32.5142,-193.338 L 32.19,-193.63 L 32.0126,-194.029 L 32.0126,-194.465 L 32.19,-194.863 L 32.5142,-195.155 L 32.929,-195.29 L 33.3627,-195.244 L 33.7404,-195.026 L 33.9968,-194.673 L 34.0875,-194.247 L 33.9968,-193.82 L 33.7404,-193.467 L 33.3627,-193.249 L 32.929,-193.204 L 32.5142,-193.338 M 29.1224,-193.133 L 28.7983,-193.425 L 28.6209,-193.824 L 28.6209,-194.26 L 28.7983,-194.658 L 29.1224,-194.95 L 29.5372,-195.085 L 29.971,-195.039 L 30.3487,-194.821 L 30.6051,-194.468 L 30.6957,-194.042 L 30.6051,-193.615 L 30.3487,-193.262 L 29.971,-193.044 L 29.5372,-192.998 L 29.1224,-193.133 M 35.9059,-193.133 L 35.5818,-193.425 L 35.4044,-193.824 L 35.4044,-194.26 L 35.5818,-194.658 L 35.9059,-194.95 L 36.3207,-195.085 L 36.7544,-195.039 L 37.1322,-194.821 L 37.3885,-194.468 L 37.4792,-194.042 L 37.3885,-193.615 L 37.1322,-193.262 L 36.7544,-193.044 L 36.3207,-192.998 L 35.9059,-193.133 M 25.7801,-192.521 L 25.456,-192.813 L 25.2786,-193.211 L 25.2786,-193.647 L 25.456,-194.046 L 25.7801,-194.337 L 26.1949,-194.472 L 26.6287,-194.427 L 27.0064,-194.209 L 27.2628,-193.856 L 27.3535,-193.429 L 27.2628,-193.003 L 27.0064,-192.65 L 26.6287,-192.432 L 26.1949,-192.386 L 25.7801,-192.521 M 39.2482,-192.521 L 38.924,-192.813 L 38.7466,-193.211 L 38.7466,-193.647 L 38.924,-194.046 L 39.2482,-194.337 L 39.663,-194.472 L 40.0967,-194.427 L 40.4744,-194.209 L 40.7308,-193.856 L 40.8215,-193.429 L 40.7308,-193.003 L 40.4744,-192.65 L 40.0967,-192.432 L 39.663,-192.386 L 39.2482,-192.521 M 22.5361,-191.51 L 22.2119,-191.802 L 22.0345,-192.2 L 22.0345,-192.636 L 22.2119,-193.035 L 22.5361,-193.327 L 22.9509,-193.461 L 23.3846,-193.416 L 23.7624,-193.198 L 24.0187,-192.845 L 24.1094,-192.418 L 24.0187,-191.992 L 23.7624,-191.639 L 23.3846,-191.421 L 22.9509,-191.375 L 22.5361,-191.51 M 42.4922,-191.51 L 42.1681,-191.802 L 41.9907,-192.2 L 41.9907,-192.636 L 42.1681,-193.035 L 42.4922,-193.327 L 42.907,-193.461 L 43.3408,-193.416 L 43.7185,-193.198 L 43.9749,-192.845 L 44.0656,-192.418 L 43.9749,-191.992 L 43.7185,-191.639 L 43.3408,-191.421 L 42.907,-191.375 L 42.4922,-191.51 M 19.4375,-190.115 L 19.1134,-190.407 L 18.936,-190.806 L 18.936,-191.242 L 19.1134,-191.64 L 19.4375,-191.932 L 19.8523,-192.067 L 20.2861,-192.021 L 20.6638,-191.803 L 20.9201,-191.45 L 21.0108,-191.024 L 20.9201,-190.597 L 20.6638,-190.244 L 20.2861,-190.026 L 19.8523,-189.981 L 19.4375,-190.115 M 45.5908,-190.115 L 45.2667,-190.407 L 45.0893,-190.806 L 45.0893,-191.242 L 45.2667,-191.64 L 45.5908,-191.932 L 46.0056,-192.067 L 46.4394,-192.021 L 46.8171,-191.803 L 47.0735,-191.45 L 47.1641,-191.024 L 47.0735,-190.597 L 46.8171,-190.244 L 46.4394,-190.026 L 46.0056,-189.981 L 45.5908,-190.115 M 16.5296,-188.357 L 16.2055,-188.649 L 16.0281,-189.048 L 16.0281,-189.484 L 16.2055,-189.882 L 16.5296,-190.174 L 16.9444,-190.309 L 17.3782,-190.263 L 17.7559,-190.045 L 18.0123,-189.692 L 18.1029,-189.266 L 18.0123,-188.839 L 17.7559,-188.486 L 17.3782,-188.268 L 16.9444,-188.223 L 16.5296,-188.357 M 48.4987,-188.357 L 48.1746,-188.649 L 47.9972,-189.048 L 47.9972,-189.484 L 48.1746,-189.882 L 48.4987,-190.174 L 48.9135,-190.309 L 49.3473,-190.263 L 49.725,-190.045 L 49.9813,-189.692 L 50.072,-189.266 L 49.9813,-188.839 L 49.725,-188.486 L 49.3473,-188.268 L 48.9135,-188.223 L 48.4987,-188.357 M 13.8548,-186.262 L 13.5307,-186.554 L 13.3533,-186.952 L 13.3533,-187.388 L 13.5307,-187.787 L 13.8548,-188.079 L 14.2696,-188.213 L 14.7034,-188.168 L 15.0811,-187.95 L 15.3375,-187.597 L 15.4281,-187.17 L 15.3375,-186.744 L 15.0811,-186.391 L 14.7034,-186.173 L 14.2696,-186.127 L 13.8548,-186.262 M 51.1735,-186.262 L 50.8494,-186.554 L 50.672,-186.952 L 50.672,-187.388 L 50.8494,-187.787 L 51.1735,-188.079 L 51.5883,-188.213 L 52.0221,-188.168 L 52.3998,-187.95 L 52.6561,-187.597 L 52.7468,-187.17 L 52.6561,-186.744 L 52.3998,-186.391 L 52.0221,-186.173 L 51.5883,-186.127 L 51.1735,-186.262 M 11.4521,-183.859 L 11.128,-184.151 L 10.9506,-184.549 L 10.9506,-184.986 L 11.128,-185.384 L 11.4521,-185.676 L 11.8669,-185.811 L 12.3007,-185.765 L 12.6784,-185.547 L 12.9348,-185.194 L 13.0254,-184.768 L 12.9348,-184.341 L 12.6784,-183.988 L 12.3007,-183.77 L 11.8669,-183.724 L 11.4521,-183.859 M 53.5762,-183.859 L 53.2521,-184.151 L 53.0747,-184.549 L 53.0747,-184.986 L 53.2521,-185.384 L 53.5762,-185.676 L 53.991,-185.811 L 54.4248,-185.765 L 54.8025,-185.547 L 55.0588,-185.194 L 55.1495,-184.768 L 55.0588,-184.341 L 54.8025,-183.988 L 54.4248,-183.77 L 53.991,-183.724 L 53.5762,-183.859 M 32.0767,-181.942 L 31.4821,-182.477 L 31.1568,-183.208 L 31.1568,-184.008 L 31.4821,-184.739 L 32.0767,-185.274 L 32.8375,-185.522 L 33.6331,-185.438 L 34.3259,-185.038 L 34.7961,-184.391 L 34.9625,-183.608 L 34.7961,-182.826 L 34.3259,-182.178 L 33.6331,-181.778 L 32.8375,-181.695 L 32.0767,-181.942 M 9.35654,-181.184 L 9.03242,-181.476 L 8.85502,-181.875 L 8.85502,-182.311 L 9.03242,-182.709 L 9.35654,-183.001 L 9.77135,-183.136 L 10.2051,-183.09 L 10.5828,-182.872 L 10.8392,-182.519 L 10.9299,-182.093 L 10.8392,-181.666 L 10.5828,-181.313 L 10.2051,-181.095 L 9.77135,-181.05 L 9.35654,-181.184 M 55.6718,-181.184 L 55.3476,-181.476 L 55.1702,-181.875 L 55.1702,-182.311 L 55.3476,-182.709 L 55.6718,-183.001 L 56.0866,-183.136 L 56.5203,-183.09 L 56.898,-182.872 L 57.1544,-182.519 L 57.2451,-182.093 L 57.1544,-181.666 L 56.898,-181.313 L 56.5203,-181.095 L 56.0866,-181.05 L 55.6718,-181.184 M 7.59866,-178.276 L 7.27454,-178.568 L 7.09714,-178.967 L 7.09714,-179.403 L 7.27454,-179.801 L 7.59866,-180.093 L 8.01347,-180.228 L 8.44723,-180.182 L 8.82495,-179.964 L 9.08131,-179.611 L 9.17199,-179.185 L 9.08131,-178.758 L 8.82495,-178.405 L 8.44723,-178.187 L 8.01347,-178.142 L 7.59866,-178.276 M 57.4296,-178.276 L 57.1055,-178.568 L 56.9281,-178.967 L 56.9281,-179.403 L 57.1055,-179.801 L 57.4296,-180.093 L 57.8444,-180.228 L 58.2782,-180.182 L 58.6559,-179.964 L 58.9123,-179.611 L 59.003,-179.185 L 58.9123,-178.758 L 58.6559,-178.405 L 58.2782,-178.187 L 57.8444,-178.142 L 57.4296,-178.276 M 6.20411,-175.178 L 5.87999,-175.47 L 5.70259,-175.868 L 5.70259,-176.304 L 5.87999,-176.703 L 6.20411,-176.995 L 6.61891,-177.129 L 7.05267,-177.084 L 7.43039,-176.866 L 7.68675,-176.513 L 7.77743,-176.086 L 7.68675,-175.66 L 7.43039,-175.307 L 7.05267,-175.089 L 6.61891,-175.043 L 6.20411,-175.178 M 58.8242,-175.178 L 58.5001,-175.47 L 58.3227,-175.868 L 58.3227,-176.304 L 58.5001,-176.703 L 58.8242,-176.995 L 59.239,-177.129 L 59.6728,-177.084 L 60.0505,-176.866 L 60.3068,-176.513 L 60.3975,-176.086 L 60.3068,-175.66 L 60.0505,-175.307 L 59.6728,-175.089 L 59.239,-175.043 L 58.8242,-175.178 M 29.0886,-172.658 L 29.0886,-175.558 L 36.9886,-175.558 L 36.9886,-172.658 L 29.0886,-172.658 M 5.19321,-171.934 L 4.86909,-172.226 L 4.69169,-172.624 L 4.69169,-173.06 L 4.86909,-173.459 L 5.19321,-173.751 L 5.60802,-173.885 L 6.04178,-173.84 L 6.4195,-173.622 L 6.67586,-173.269 L 6.76654,-172.842 L 6.67586,-172.416 L 6.4195,-172.063 L 6.04178,-171.845 L 5.60802,-171.799 L 5.19321,-171.934 M 59.8351,-171.934 L 59.511,-172.226 L 59.3336,-172.624 L 59.3336,-173.06 L 59.511,-173.459 L 59.8351,-173.751 L 60.2499,-173.885 L 60.6837,-173.84 L 61.0614,-173.622 L 61.3177,-173.269 L 61.4084,-172.842 L 61.3177,-172.416 L 61.0614,-172.063 L 60.6837,-171.845 L 60.2499,-171.799 L 59.8351,-171.934 M 4.58072,-168.592 L 4.2566,-168.883 L 4.0792,-169.282 L 4.0792,-169.718 L 4.2566,-170.116 L 4.58072,-170.408 L 4.99552,-170.543 L 5.42928,-170.497 L 5.807,-170.279 L 6.06336,-169.927 L 6.15405,-169.5 L 6.06336,-169.073 L 5.807,-168.72 L 5.42928,-168.502 L 4.99552,-168.457 L 4.58072,-168.592 M 60.4476,-168.592 L 60.1235,-168.883 L 59.9461,-169.282 L 59.9461,-169.718 L 60.1235,-170.116 L 60.4476,-170.408 L 60.8624,-170.543 L 61.2961,-170.497 L 61.6739,-170.279 L 61.9302,-169.927 L 62.0209,-169.5 L 61.9302,-169.073 L 61.6739,-168.72 L 61.2961,-168.502 L 60.8624,-168.457 L 60.4476,-168.592 M 39.5886,-162.158 L 39.5886,-170.058 L 42.4886,-170.058 L 42.4886,-162.158 L 39.5886,-162.158 M 23.5886,-162.158 L 23.5886,-170.058 L 26.4886,-170.058 L 26.4886,-162.158 L 23.5886,-162.158 M 32.7416,-163.757 L 32.4492,-163.813 L 32.1662,-163.905 L 31.8969,-164.031 L 31.6456,-164.191 L 31.5886,-164.238 L 31.5886,-165.742 L 28.0886,-165.742 L 28.0886,-166.475 L 31.5886,-166.475 L 31.5886,-167.978 L 31.6456,-168.025 L 31.8969,-168.185 L 32.1662,-168.312 L 32.4492,-168.404 L 32.7416,-168.459 L 33.0386,-168.478 L 33.3356,-168.459 L 33.628,-168.404 L 33.911,-168.312 L 34.1803,-168.185 L 34.4316,-168.025 L 34.4886,-167.978 L 34.4886,-166.475 L 37.9886,-166.475 L 37.9886,-165.742 L 34.4886,-165.742 L 34.4886,-164.238 L 34.4316,-164.191 L 34.1803,-164.031 L 33.911,-163.905 L 33.628,-163.813 L 33.3356,-163.757 L 33.0386,-163.738 L 32.7416,-163.757 M 4.37556,-165.2 L 4.05144,-165.492 L 3.87404,-165.89 L 3.87404,-166.326 L 4.05144,-166.725 L 4.37556,-167.017 L 4.79036,-167.151 L 5.22412,-167.106 L 5.60184,-166.888 L 5.8582,-166.535 L 5.94888,-166.108 L 5.8582,-165.682 L 5.60184,-165.329 L 5.22412,-165.111 L 4.79036,-165.065 L 4.37556,-165.2 M 60.6527,-165.2 L 60.3286,-165.492 L 60.1512,-165.89 L 60.1512,-166.326 L 60.3286,-166.725 L 60.6527,-167.017 L 61.0675,-167.151 L 61.5013,-167.106 L 61.879,-166.888 L 62.1354,-166.535 L 62.2261,-166.108 L 62.1354,-165.682 L 61.879,-165.329 L 61.5013,-165.111 L 61.0675,-165.065 L 60.6527,-165.2 M 4.58072,-161.808 L 4.2566,-162.1 L 4.0792,-162.498 L 4.0792,-162.935 L 4.2566,-163.333 L 4.58072,-163.625 L 4.99552,-163.76 L 5.42928,-163.714 L 5.807,-163.496 L 6.06336,-163.143 L 6.15405,-162.716 L 6.06336,-162.29 L 5.807,-161.937 L 5.42928,-161.719 L 4.99552,-161.673 L 4.58072,-161.808 M 60.4476,-161.808 L 60.1235,-162.1 L 59.9461,-162.498 L 59.9461,-162.935 L 60.1235,-163.333 L 60.4476,-163.625 L 60.8624,-163.76 L 61.2961,-163.714 L 61.6739,-163.496 L 61.9302,-163.143 L 62.0209,-162.716 L 61.9302,-162.29 L 61.6739,-161.937 L 61.2961,-161.719 L 60.8624,-161.673 L 60.4476,-161.808 M 5.19321,-158.466 L 4.86909,-158.758 L 4.69169,-159.156 L 4.69169,-159.592 L 4.86909,-159.991 L 5.19321,-160.283 L 5.60802,-160.417 L 6.04178,-160.372 L 6.4195,-160.154 L 6.67586,-159.801 L 6.76654,-159.374 L 6.67586,-158.948 L 6.4195,-158.595 L 6.04178,-158.377 L 5.60802,-158.331 L 5.19321,-158.466 M 59.8351,-158.466 L 59.511,-158.758 L 59.3336,-159.156 L 59.3336,-159.592 L 59.511,-159.991 L 59.8351,-160.283 L 60.2499,-160.417 L 60.6837,-160.372 L 61.0614,-160.154 L 61.3177,-159.801 L 61.4084,-159.374 L 61.3177,-158.948 L 61.0614,-158.595 L 60.6837,-158.377 L 60.2499,-158.331 L 59.8351,-158.466 M 29.0886,-156.658 L 29.0886,-159.558 L 36.9886,-159.558 L 36.9886,-156.658 L 29.0886,-156.658 M 6.20411,-155.222 L 5.87999,-155.514 L 5.70259,-155.912 L 5.70259,-156.348 L 5.87999,-156.747 L 6.20411,-157.038 L 6.61891,-157.173 L 7.05267,-157.128 L 7.43039,-156.91 L 7.68675,-156.557 L 7.77743,-156.13 L 7.68675,-155.703 L 7.43039,-155.351 L 7.05267,-155.133 L 6.61891,-155.087 L 6.20411,-155.222 M 58.8242,-155.222 L 58.5001,-155.514 L 58.3227,-155.912 L 58.3227,-156.348 L 58.5001,-156.747 L 58.8242,-157.038 L 59.239,-157.173 L 59.6728,-157.128 L 60.0505,-156.91 L 60.3068,-156.557 L 60.3975,-156.13 L 60.3068,-155.703 L 60.0505,-155.351 L 59.6728,-155.133 L 59.239,-155.087 L 58.8242,-155.222 M 7.59866,-152.123 L 7.27454,-152.415 L 7.09714,-152.813 L 7.09714,-153.25 L 7.27454,-153.648 L 7.59866,-153.94 L 8.01347,-154.075 L 8.44723,-154.029 L 8.82495,-153.811 L 9.08131,-153.458 L 9.17199,-153.032 L 9.08131,-152.605 L 8.82495,-152.252 L 8.44723,-152.034 L 8.01347,-151.988 L 7.59866,-152.123 M 57.4296,-152.123 L 57.1055,-152.415 L 56.9281,-152.813 L 56.9281,-153.25 L 57.1055,-153.648 L 57.4296,-153.94 L 57.8444,-154.075 L 58.2782,-154.029 L 58.6559,-153.811 L 58.9123,-153.458 L 59.003,-153.032 L 58.9123,-152.605 L 58.6559,-152.252 L 58.2782,-152.034 L 57.8444,-151.988 L 57.4296,-152.123 M 9.35654,-149.215 L 9.03242,-149.507 L 8.85502,-149.906 L 8.85502,-150.342 L 9.03242,-150.74 L 9.35654,-151.032 L 9.77135,-151.167 L 10.2051,-151.121 L 10.5828,-150.903 L 10.8392,-150.55 L 10.9299,-150.124 L 10.8392,-149.697 L 10.5828,-149.344 L 10.2051,-149.126 L 9.77135,-149.081 L 9.35654,-149.215 M 55.6718,-149.215 L 55.3476,-149.507 L 55.1702,-149.906 L 55.1702,-150.342 L 55.3476,-150.74 L 55.6718,-151.032 L 56.0866,-151.167 L 56.5203,-151.121 L 56.898,-150.903 L 57.1544,-150.55 L 57.2451,-150.124 L 57.1544,-149.697 L 56.898,-149.344 L 56.5203,-149.126 L 56.0866,-149.081 L 55.6718,-149.215 M 11.4521,-146.54 L 11.128,-146.832 L 10.9506,-147.231 L 10.9506,-147.667 L 11.128,-148.065 L 11.4521,-148.357 L 11.8669,-148.492 L 12.3007,-148.446 L 12.6784,-148.228 L 12.9348,-147.875 L 13.0254,-147.449 L 12.9348,-147.022 L 12.6784,-146.669 L 12.3007,-146.451 L 11.8669,-146.406 L 11.4521,-146.54 M 53.5762,-146.54 L 53.2521,-146.832 L 53.0747,-147.231 L 53.0747,-147.667 L 53.2521,-148.065 L 53.5762,-148.357 L 53.991,-148.492 L 54.4248,-148.446 L 54.8025,-148.228 L 55.0588,-147.875 L 55.1495,-147.449 L 55.0588,-147.022 L 54.8025,-146.669 L 54.4248,-146.451 L 53.991,-146.406 L 53.5762,-146.54 M 13.8548,-144.138 L 13.5307,-144.43 L 13.3533,-144.828 L 13.3533,-145.264 L 13.5307,-145.663 L 13.8548,-145.955 L 14.2696,-146.089 L 14.7034,-146.044 L 15.0811,-145.826 L 15.3375,-145.473 L 15.4281,-145.046 L 15.3375,-144.62 L 15.0811,-144.267 L 14.7034,-144.049 L 14.2696,-144.003 L 13.8548,-144.138 M 51.1735,-144.138 L 50.8494,-144.43 L 50.672,-144.828 L 50.672,-145.264 L 50.8494,-145.663 L 51.1735,-145.955 L 51.5883,-146.089 L 52.0221,-146.044 L 52.3998,-145.826 L 52.6561,-145.473 L 52.7468,-145.046 L 52.6561,-144.62 L 52.3998,-144.267 L 52.0221,-144.049 L 51.5883,-144.003 L 51.1735,-144.138 M 16.5296,-142.042 L 16.2055,-142.334 L 16.0281,-142.733 L 16.0281,-143.169 L 16.2055,-143.567 L 16.5296,-143.859 L 16.9444,-143.994 L 17.3782,-143.948 L 17.7559,-143.73 L 18.0123,-143.377 L 18.1029,-142.951 L 18.0123,-142.524 L 17.7559,-142.171 L 17.3782,-141.953 L 16.9444,-141.907 L 16.5296,-142.042 M 48.4987,-142.042 L 48.1746,-142.334 L 47.9972,-142.733 L 47.9972,-143.169 L 48.1746,-143.567 L 48.4987,-143.859 L 48.9135,-143.994 L 49.3473,-143.948 L 49.725,-143.73 L 49.9813,-143.377 L 50.072,-142.951 L 49.9813,-142.524 L 49.725,-142.171 L 49.3473,-141.953 L 48.9135,-141.907 L 48.4987,-142.042 M 19.4375,-140.284 L 19.1134,-140.576 L 18.936,-140.975 L 18.936,-141.411 L 19.1134,-141.809 L 19.4375,-142.101 L 19.8523,-142.236 L 20.2861,-142.19 L 20.6638,-141.972 L 20.9201,-141.619 L 21.0108,-141.193 L 20.9201,-140.766 L 20.6638,-140.413 L 20.2861,-140.195 L 19.8523,-140.15 L 19.4375,-140.284 M 45.5908,-140.284 L 45.2667,-140.576 L 45.0893,-140.975 L 45.0893,-141.411 L 45.2667,-141.809 L 45.5908,-142.101 L 46.0056,-142.236 L 46.4394,-142.19 L 46.8171,-141.972 L 47.0735,-141.619 L 47.1641,-141.193 L 47.0735,-140.766 L 46.8171,-140.413 L 46.4394,-140.195 L 46.0056,-140.15 L 45.5908,-140.284 M 22.5361,-138.89 L 22.2119,-139.182 L 22.0345,-139.58 L 22.0345,-140.016 L 22.2119,-140.415 L 22.5361,-140.707 L 22.9509,-140.841 L 23.3846,-140.796 L 23.7624,-140.578 L 24.0187,-140.225 L 24.1094,-139.798 L 24.0187,-139.372 L 23.7624,-139.019 L 23.3846,-138.801 L 22.9509,-138.755 L 22.5361,-138.89 M 42.4922,-138.89 L 42.1681,-139.182 L 41.9907,-139.58 L 41.9907,-140.016 L 42.1681,-140.415 L 42.4922,-140.707 L 42.907,-140.841 L 43.3408,-140.796 L 43.7185,-140.578 L 43.9749,-140.225 L 44.0656,-139.798 L 43.9749,-139.372 L 43.7185,-139.019 L 43.3408,-138.801 L 42.907,-138.755 L 42.4922,-138.89 M 25.7801,-137.879 L 25.456,-138.171 L 25.2786,-138.569 L 25.2786,-139.005 L 25.456,-139.404 L 25.7801,-139.696 L 26.1949,-139.83 L 26.6287,-139.785 L 27.0064,-139.567 L 27.2628,-139.214 L 27.3535,-138.787 L 27.2628,-138.361 L 27.0064,-138.008 L 26.6287,-137.79 L 26.1949,-137.744 L 25.7801,-137.879 M 39.2482,-137.879 L 38.924,-138.171 L 38.7466,-138.569 L 38.7466,-139.005 L 38.924,-139.404 L 39.2482,-139.696 L 39.663,-139.83 L 40.0967,-139.785 L 40.4744,-139.567 L 40.7308,-139.214 L 40.8215,-138.787 L 40.7308,-138.361 L 40.4744,-138.008 L 40.0967,-137.79 L 39.663,-137.744 L 39.2482,-137.879 M 29.1224,-137.266 L 28.7983,-137.558 L 28.6209,-137.957 L 28.6209,-138.393 L 28.7983,-138.791 L 29.1224,-139.083 L 29.5372,-139.218 L 29.971,-139.172 L 30.3487,-138.954 L 30.6051,-138.601 L 30.6957,-138.175 L 30.6051,-137.748 L 30.3487,-137.395 L 29.971,-137.177 L 29.5372,-137.132 L 29.1224,-137.266 M 35.9059,-137.266 L 35.5818,-137.558 L 35.4044,-137.957 L 35.4044,-138.393 L 35.5818,-138.791 L 35.9059,-139.083 L 36.3207,-139.218 L 36.7544,-139.172 L 37.1322,-138.954 L 37.3885,-138.601 L 37.4792,-138.175 L 37.3885,-137.748 L 37.1322,-137.395 L 36.7544,-137.177 L 36.3207,-137.132 L 35.9059,-137.266 M 32.5142,-137.061 L 32.19,-137.353 L 32.0126,-137.752 L 32.0126,-138.188 L 32.19,-138.586 L 32.5142,-138.878 L 32.929,-139.013 L 33.3627,-138.967 L 33.7404,-138.749 L 33.9968,-138.396 L 34.0875,-137.97 L 33.9968,-137.543 L 33.7404,-137.19 L 33.3627,-136.972 L 32.929,-136.926 L 32.5142,-137.061" stroke="#0000ff" fill="none" stroke-width="0.1"/><path d="M 96.3609,-136.184 L 99.4716,-136.677 L 102.514,-137.492 L 105.454,-138.621 L 108.26,-140.051 L 110.901,-141.766 L 113.349,-143.748 L 115.576,-145.975 L 117.558,-148.423 L 119.273,-151.064 L 120.703,-153.87 L 121.832,-156.81 L 122.647,-159.852 L 123.14,-162.963 L 123.304,-166.108 L 123.14,-169.253 L 122.647,-172.364 L 121.832,-175.406 L 120.703,-178.346 L 119.273,-181.153 L 117.558,-183.794 L 115.576,-186.241 L 113.349,-188.468 L 110.901,-190.45 L 108.26,-192.166 L 105.454,-193.596 L 102.514,-194.724 L 99.4716,-195.539 L 96.3609,-196.032 L 93.2158,-196.197 L 90.0707,-196.032 L 86.96,-195.539 L 83.9179,-194.724 L 80.9776,-193.596 L 78.1715,-192.166 L 75.5301,-190.45 L 73.0825,-188.468 L 70.8555,-186.241 L 68.8735,-183.794 L 67.1582,-181.153 L 65.7284,-178.346 L 64.5998,-175.406 L 63.7846,-172.364 L 63.2919,-169.253 L 63.1271,-166.108 L 63.2919,-162.963 L 63.7846,-159.852 L 64.5998,-156.81 L 65.7284,-153.87 L 67.1582,-151.064 L 68.8735,-148.423 L 70.8555,-145.975 L 73.0825,-143.748 L 75.5301,-141.766 L 78.1715,-140.051 L 80.9776,-138.621 L 83.9179,-137.492 L 86.96,-136.677 L 90.0707,-136.184 L 93.2158,-136.02 L 96.3609,-136.184 M 92.6913,-193.338 L 92.3672,-193.63 L 92.1898,-194.029 L 92.1898,-194.465 L 92.3672,-194.863 L 92.6913,-195.155 L 93.1061,-195.29 L 93.5399,-195.244 L 93.9176,-195.026 L 94.174,-194.673 L 94.2647,-194.247 L 94.174,-193.82 L 93.9176,-193.467 L 93.5399,-193.249 L 93.1061,-193.204 L 92.6913,-193.338 M 89.2996,-193.133 L 88.9755,-193.425 L 88.7981,-193.824 L 88.7981,-194.26 L 88.9755,-194.658 L 89.2996,-194.95 L 89.7144,-195.085 L 90.1482,-195.039 L 90.5259,-194.821 L 90.7823,-194.468 L 90.8729,-194.042 L 90.7823,-193.615 L 90.5259,-193.262 L 90.1482,-193.044 L 89.7144,-192.998 L 89.2996,-193.133 M 96.0831,-193.133 L 95.759,-193.425 L 95.5816,-193.824 L 95.5816,-194.26 L 95.759,-194.658 L 96.0831,-194.95 L 96.4979,-195.085 L 96.9316,-195.039 L 97.3094,-194.821 L 97.5657,-194.468 L 97.6564,-194.042 L 97.5657,-193.615 L 97.3094,-193.262 L 96.9316,-193.044 L 96.4979,-192.998 L 96.0831,-193.133 M 85.9573,-192.521 L 85.6332,-192.813 L 85.4558,-193.211 L 85.4558,-193.647 L 85.6332,-194.046 L 85.9573,-194.337 L 86.3721,-194.472 L 86.8059,-194.427 L 87.1836,-194.209 L 87.44,-193.856 L 87.5307,-193.429 L 87.44,-193.003 L 87.1836,-192.65 L 86.8059,-192.432 L 86.3721,-192.386 L 85.9573,-192.521 M 99.4253,-192.521 L 99.1012,-192.813 L 98.9238,-193.211 L 98.9238,-193.647 L 99.1012,-194.046 L 99.4253,-194.337 L 99.8401,-194.472 L 100.274,-194.427 L 100.652,-194.209 L 100.908,-193.856 L 100.999,-193.429 L 100.908,-193.003 L 100.652,-192.65 L 100.274,-192.432 L 99.8401,-192.386 L 99.4253,-192.521 M 82.7133,-191.51 L 82.3891,-191.802 L 82.2117,-192.2 L 82.2117,-192.636 L 82.3891,-193.035 L 82.7133,-193.327 L 83.1281,-193.461 L 83.5618,-193.416 L 83.9395,-193.198 L 84.1959,-192.845 L 84.2866,-192.418 L 84.1959,-191.992 L 83.9395,-191.639 L 83.5618,-191.421 L 83.1281,-191.375 L 82.7133,-191.51 M 102.669,-191.51 L 102.345,-191.802 L 102.168,-192.2 L 102.168,-192.636 L 102.345,-193.035 L 102.669,-193.327 L 103.084,-193.461 L 103.518,-193.416 L 103.896,-193.198 L 104.152,-192.845 L 104.243,-192.418 L 104.152,-191.992 L 103.896,-191.639 L 103.518,-191.421 L 103.084,-191.375 L 102.669,-191.51 M 79.6147,-190.115 L 79.2906,-190.407 L 79.1132,-190.806 L 79.1132,-191.242 L 79.2906,-191.64 L 79.6147,-191.932 L 80.0295,-192.067 L 80.4632,-192.021 L 80.841,-191.803 L 81.0973,-191.45 L 81.188,-191.024 L 81.0973,-190.597 L 80.841,-190.244 L 80.4632,-190.026 L 80.0295,-189.981 L 79.6147,-190.115 M 105.768,-190.115 L 105.444,-190.407 L 105.266,-190.806 L 105.266,-191.242 L 105.444,-191.64 L 105.768,-191.932 L 106.183,-192.067 L 106.617,-192.021 L 106.994,-191.803 L 107.251,-191.45 L 107.341,-191.024 L 107.251,-190.597 L 106.994,-190.244 L 106.617,-190.026 L 106.183,-189.981 L 105.768,-190.115 M 76.7068,-188.357 L 76.3827,-188.649 L 76.2053,-189.048 L 76.2053,-189.484 L 76.3827,-189.882 L 76.7068,-190.174 L 77.1216,-190.309 L 77.5554,-190.263 L 77.9331,-190.045 L 78.1894,-189.692 L 78.2801,-189.266 L 78.1894,-188.839 L 77.9331,-188.486 L 77.5554,-188.268 L 77.1216,-188.223 L 76.7068,-188.357 M 108.676,-188.357 L 108.352,-188.649 L 108.174,-189.048 L 108.174,-189.484 L 108.352,-189.882 L 108.676,-190.174 L 109.091,-190.309 L 109.524,-190.263 L 109.902,-190.045 L 110.159,-189.692 L 110.249,-189.266 L 110.159,-188.839 L 109.902,-188.486 L 109.524,-188.268 L 109.091,-188.223 L 108.676,-188.357 M 74.032,-186.262 L 73.7079,-186.554 L 73.5305,-186.952 L 73.5305,-187.388 L 73.7079,-187.787 L 74.032,-188.079 L 74.4468,-188.213 L 74.8806,-188.168 L 75.2583,-187.95 L 75.5146,-187.597 L 75.6053,-187.17 L 75.5146,-186.744 L 75.2583,-186.391 L 74.8806,-186.173 L 74.4468,-186.127 L 74.032,-186.262 M 111.351,-186.262 L 111.027,-186.554 L 110.849,-186.952 L 110.849,-187.388 L 111.027,-187.787 L 111.351,-188.079 L 111.765,-188.213 L 112.199,-188.168 L 112.577,-187.95 L 112.833,-187.597 L 112.924,-187.17 L 112.833,-186.744 L 112.577,-186.391 L 112.199,-186.173 L 111.765,-186.127 L 111.351,-186.262 M 71.6293,-183.859 L 71.3052,-184.151 L 71.1278,-184.549 L 71.1278,-184.986 L 71.3052,-185.384 L 71.6293,-185.676 L 72.0441,-185.811 L 72.4779,-185.765 L 72.8556,-185.547 L 73.1119,-185.194 L 73.2026,-184.768 L 73.1119,-184.341 L 72.8556,-183.988 L 72.4779,-183.77 L 72.0441,-183.724 L 71.6293,-183.859 M 113.753,-183.859 L 113.429,-184.151 L 113.252,-184.549 L 113.252,-184.986 L 113.429,-185.384 L 113.753,-185.676 L 114.168,-185.811 L 114.602,-185.765 L 114.98,-185.547 L 115.236,-185.194 L 115.327,-184.768 L 115.236,-184.341 L 114.98,-183.988 L 114.602,-183.77 L 114.168,-183.724 L 113.753,-183.859 M 69.5337,-181.184 L 69.2096,-181.476 L 69.0322,-181.875 L 69.0322,-182.311 L 69.2096,-182.709 L 69.5337,-183.001 L 69.9485,-183.136 L 70.3823,-183.09 L 70.76,-182.872 L 71.0164,-182.519 L 71.1071,-182.093 L 71.0164,-181.666 L 70.76,-181.313 L 70.3823,-181.095 L 69.9485,-181.05 L 69.5337,-181.184 M 115.849,-181.184 L 115.525,-181.476 L 115.347,-181.875 L 115.347,-182.311 L 115.525,-182.709 L 115.849,-183.001 L 116.264,-183.136 L 116.698,-183.09 L 117.075,-182.872 L 117.332,-182.519 L 117.422,-182.093 L 117.332,-181.666 L 117.075,-181.313 L 116.698,-181.095 L 116.264,-181.05 L 115.849,-181.184 M 67.7759,-178.276 L 67.4517,-178.568 L 67.2743,-178.967 L 67.2743,-179.403 L 67.4517,-179.801 L 67.7759,-180.093 L 68.1907,-180.228 L 68.6244,-180.182 L 69.0021,-179.964 L 69.2585,-179.611 L 69.3492,-179.185 L 69.2585,-178.758 L 69.0021,-178.405 L 68.6244,-178.187 L 68.1907,-178.142 L 67.7759,-178.276 M 117.607,-178.276 L 117.283,-178.568 L 117.105,-178.967 L 117.105,-179.403 L 117.283,-179.801 L 117.607,-180.093 L 118.022,-180.228 L 118.455,-180.182 L 118.833,-179.964 L 119.089,-179.611 L 119.18,-179.185 L 119.089,-178.758 L 118.833,-178.405 L 118.455,-178.187 L 118.022,-178.142 L 117.607,-178.276 M 66.3813,-175.178 L 66.0572,-175.47 L 65.8798,-175.868 L 65.8798,-176.304 L 66.0572,-176.703 L 66.3813,-176.995 L 66.7961,-177.129 L 67.2299,-177.084 L 67.6076,-176.866 L 67.8639,-176.513 L 67.9546,-176.086 L 67.8639,-175.66 L 67.6076,-175.307 L 67.2299,-175.089 L 66.7961,-175.043 L 66.3813,-175.178 M 119.001,-175.178 L 118.677,-175.47 L 118.5,-175.868 L 118.5,-176.304 L 118.677,-176.703 L 119.001,-176.995 L 119.416,-177.129 L 119.85,-177.084 L 120.228,-176.866 L 120.484,-176.513 L 120.575,-176.086 L 120.484,-175.66 L 120.228,-175.307 L 119.85,-175.089 L 119.416,-175.043 L 119.001,-175.178 M 90.2658,-172.658 L 90.2658,-175.558 L 96.1658,-175.558 L 96.1658,-172.658 L 90.2658,-172.658 M 65.3704,-171.934 L 65.0463,-172.226 L 64.8689,-172.624 L 64.8689,-173.06 L 65.0463,-173.459 L 65.3704,-173.751 L 65.7852,-173.885 L 66.219,-173.84 L 66.5967,-173.622 L 66.853,-173.269 L 66.9437,-172.842 L 66.853,-172.416 L 66.5967,-172.063 L 66.219,-171.845 L 65.7852,-171.799 L 65.3704,-171.934 M 120.012,-171.934 L 119.688,-172.226 L 119.511,-172.624 L 119.511,-173.06 L 119.688,-173.459 L 120.012,-173.751 L 120.427,-173.885 L 120.861,-173.84 L 121.239,-173.622 L 121.495,-173.269 L 121.586,-172.842 L 121.495,-172.416 L 121.239,-172.063 L 120.861,-171.845 L 120.427,-171.799 L 120.012,-171.934 M 64.7579,-168.592 L 64.4338,-168.883 L 64.2564,-169.282 L 64.2564,-169.718 L 64.4338,-170.116 L 64.7579,-170.408 L 65.1727,-170.543 L 65.6065,-170.497 L 65.9842,-170.279 L 66.2406,-169.927 L 66.3312,-169.5 L 66.2406,-169.073 L 65.9842,-168.72 L 65.6065,-168.502 L 65.1727,-168.457 L 64.7579,-168.592 M 120.625,-168.592 L 120.301,-168.883 L 120.123,-169.282 L 120.123,-169.718 L 120.301,-170.116 L 120.625,-170.408 L 121.04,-170.543 L 121.473,-170.497 L 121.851,-170.279 L 122.107,-169.927 L 122.198,-169.5 L 122.107,-169.073 L 121.851,-168.72 L 121.473,-168.502 L 121.04,-168.457 L 120.625,-168.592 M 91.1739,-162.572 L 89.1321,-166.108 L 91.1739,-169.645 L 95.2576,-169.645 L 97.2995,-166.108 L 95.2576,-162.572 L 91.1739,-162.572 M 99.7658,-163.158 L 99.7658,-169.058 L 102.666,-169.058 L 102.666,-163.158 L 99.7658,-163.158 M 83.7658,-163.158 L 83.7658,-169.058 L 86.6658,-169.058 L 86.6658,-163.158 L 83.7658,-163.158 M 64.5527,-165.2 L 64.2286,-165.492 L 64.0512,-165.89 L 64.0512,-166.326 L 64.2286,-166.725 L 64.5527,-167.017 L 64.9675,-167.151 L 65.4013,-167.106 L 65.779,-166.888 L 66.0354,-166.535 L 66.1261,-166.108 L 66.0354,-165.682 L 65.779,-165.329 L 65.4013,-165.111 L 64.9675,-165.065 L 64.5527,-165.2 M 120.83,-165.2 L 120.506,-165.492 L 120.328,-165.89 L 120.328,-166.326 L 120.506,-166.725 L 120.83,-167.017 L 121.245,-167.151 L 121.678,-167.106 L 122.056,-166.888 L 122.313,-166.535 L 122.403,-166.108 L 122.313,-165.682 L 122.056,-165.329 L 121.678,-165.111 L 121.245,-165.065 L 120.83,-165.2 M 64.7579,-161.808 L 64.4338,-162.1 L 64.2564,-162.498 L 64.2564,-162.935 L 64.4338,-163.333 L 64.7579,-163.625 L 65.1727,-163.76 L 65.6065,-163.714 L 65.9842,-163.496 L 66.2406,-163.143 L 66.3312,-162.716 L 66.2406,-162.29 L 65.9842,-161.937 L 65.6065,-161.719 L 65.1727,-161.673 L 64.7579,-161.808 M 120.625,-161.808 L 120.301,-162.1 L 120.123,-162.498 L 120.123,-162.935 L 120.301,-163.333 L 120.625,-163.625 L 121.04,-163.76 L 121.473,-163.714 L 121.851,-163.496 L 122.107,-163.143 L 122.198,-162.716 L 122.107,-162.29 L 121.851,-161.937 L 121.473,-161.719 L 121.04,-161.673 L 120.625,-161.808 M 65.3704,-158.466 L 65.0463,-158.758 L 64.8689,-159.156 L 64.8689,-159.592 L 65.0463,-159.991 L 65.3704,-160.283 L 65.7852,-160.417 L 66.219,-160.372 L 66.5967,-160.154 L 66.853,-159.801 L 66.9437,-159.374 L 66.853,-158.948 L 66.5967,-158.595 L 66.219,-158.377 L 65.7852,-158.331 L 65.3704,-158.466 M 120.012,-158.466 L 119.688,-158.758 L 119.511,-159.156 L 119.511,-159.592 L 119.688,-159.991 L 120.012,-160.283 L 120.427,-160.417 L 120.861,-160.372 L 121.239,-160.154 L 121.495,-159.801 L 121.586,-159.374 L 121.495,-158.948 L 121.239,-158.595 L 120.861,-158.377 L 120.427,-158.331 L 120.012,-158.466 M 90.2658,-156.658 L 90.2658,-159.558 L 96.1658,-159.558 L 96.1658,-156.658 L 90.2658,-156.658 M 66.3813,-155.222 L 66.0572,-155.514 L 65.8798,-155.912 L 65.8798,-156.348 L 66.0572,-156.747 L 66.3813,-157.038 L 66.7961,-157.173 L 67.2299,-157.128 L 67.6076,-156.91 L 67.8639,-156.557 L 67.9546,-156.13 L 67.8639,-155.703 L 67.6076,-155.351 L 67.2299,-155.133 L 66.7961,-155.087 L 66.3813,-155.222 M 119.001,-155.222 L 118.677,-155.514 L 118.5,-155.912 L 118.5,-156.348 L 118.677,-156.747 L 119.001,-157.038 L 119.416,-157.173 L 119.85,-157.128 L 120.228,-156.91 L 120.484,-156.557 L 120.575,-156.13 L 120.484,-155.703 L 120.228,-155.351 L 119.85,-155.133 L 119.416,-155.087 L 119.001,-155.222 M 67.7759,-152.123 L 67.4517,-152.415 L 67.2743,-152.813 L 67.2743,-153.25 L 67.4517,-153.648 L 67.7759,-153.94 L 68.1907,-154.075 L 68.6244,-154.029 L 69.0021,-153.811 L 69.2585,-153.458 L 69.3492,-153.032 L 69.2585,-152.605 L 69.0021,-152.252 L 68.6244,-152.034 L 68.1907,-151.988 L 67.7759,-152.123 M 117.607,-152.123 L 117.283,-152.415 L 117.105,-152.813 L 117.105,-153.25 L 117.283,-153.648 L 117.607,-153.94 L 118.022,-154.075 L 118.455,-154.029 L 118.833,-153.811 L 119.089,-153.458 L 119.18,-153.032 L 119.089,-152.605 L 118.833,-152.252 L 118.455,-152.034 L 118.022,-151.988 L 117.607,-152.123 M 69.5337,-149.215 L 69.2096,-149.507 L 69.0322,-149.906 L 69.0322,-150.342 L 69.2096,-150.74 L 69.5337,-151.032 L 69.9485,-151.167 L 70.3823,-151.121 L 70.76,-150.903 L 71.0164,-150.55 L 71.1071,-150.124 L 71.0164,-149.697 L 70.76,-149.344 L 70.3823,-149.126 L 69.9485,-149.081 L 69.5337,-149.215 M 115.849,-149.215 L 115.525,-149.507 L 115.347,-149.906 L 115.347,-150.342 L 115.525,-150.74 L 115.849,-151.032 L 116.264,-151.167 L 116.698,-151.121 L 117.075,-150.903 L 117.332,-150.55 L 117.422,-150.124 L 117.332,-149.697 L 117.075,-149.344 L 116.698,-149.126 L 116.264,-149.081 L 115.849,-149.215 M 71.6293,-146.54 L 71.3052,-146.832 L 71.1278,-147.231 L 71.1278,-147.667 L 71.3052,-148.065 L 71.6293,-148.357 L 72.0441,-148.492 L 72.4779,-148.446 L 72.8556,-148.228 L 73.1119,-147.875 L 73.2026,-147.449 L 73.1119,-147.022 L 72.8556,-146.669 L 72.4779,-146.451 L 72.0441,-146.406 L 71.6293,-146.54 M 113.753,-146.54 L 113.429,-146.832 L 113.252,-147.231 L 113.252,-147.667 L 113.429,-148.065 L 113.753,-148.357 L 114.168,-148.492 L 114.602,-148.446 L 114.98,-148.228 L 115.236,-147.875 L 115.327,-147.449 L 115.236,-147.022 L 114.98,-146.669 L 114.602,-146.451 L 114.168,-146.406 L 113.753,-146.54 M 74.032,-144.138 L 73.7079,-144.43 L 73.5305,-144.828 L 73.5305,-145.264 L 73.7079,-145.663 L 74.032,-145.955 L 74.4468,-146.089 L 74.8806,-146.044 L 75.2583,-145.826 L 75.5146,-145.473 L 75.6053,-145.046 L 75.5146,-144.62 L 75.2583,-144.267 L 74.8806,-144.049 L 74.4468,-144.003 L 74.032,-144.138 M 111.351,-144.138 L 111.027,-144.43 L 110.849,-144.828 L 110.849,-145.264 L 111.027,-145.663 L 111.351,-145.955 L 111.765,-146.089 L 112.199,-146.044 L 112.577,-145.826 L 112.833,-145.473 L 112.924,-145.046 L 112.833,-144.62 L 112.577,-144.267 L 112.199,-144.049 L 111.765,-144.003 L 111.351,-144.138 M 76.7068,-142.042 L 76.3827,-142.334 L 76.2053,-142.733 L 76.2053,-143.169 L 76.3827,-143.567 L 76.7068,-143.859 L 77.1216,-143.994 L 77.5554,-143.948 L 77.9331,-143.73 L 78.1894,-143.377 L 78.2801,-142.951 L 78.1894,-142.524 L 77.9331,-142.171 L 77.5554,-141.953 L 77.1216,-141.907 L 76.7068,-142.042 M 108.676,-142.042 L 108.352,-142.334 L 108.174,-142.733 L 108.174,-143.169 L 108.352,-143.567 L 108.676,-143.859 L 109.091,-143.994 L 109.524,-143.948 L 109.902,-143.73 L 110.159,-143.377 L 110.249,-142.951 L 110.159,-142.524 L 109.902,-142.171 L 109.524,-141.953 L 109.091,-141.907 L 108.676,-142.042 M 79.6147,-140.284 L 79.2906,-140.576 L 79.1132,-140.975 L 79.1132,-141.411 L 79.2906,-141.809 L 79.6147,-142.101 L 80.0295,-142.236 L 80.4632,-142.19 L 80.841,-141.972 L 81.0973,-141.619 L 81.188,-141.193 L 81.0973,-140.766 L 80.841,-140.413 L 80.4632,-140.195 L 80.0295,-140.15 L 79.6147,-140.284 M 105.768,-140.284 L 105.444,-140.576 L 105.266,-140.975 L 105.266,-141.411 L 105.444,-141.809 L 105.768,-142.101 L 106.183,-142.236 L 106.617,-142.19 L 106.994,-141.972 L 107.251,-141.619 L 107.341,-141.193 L 107.251,-140.766 L 106.994,-140.413 L 106.617,-140.195 L 106.183,-140.15 L 105.768,-140.284 M 82.7133,-138.89 L 82.3891,-139.182 L 82.2117,-139.58 L 82.2117,-140.016 L 82.3891,-140.415 L 82.7133,-140.707 L 83.1281,-140.841 L 83.5618,-140.796 L 83.9395,-140.578 L 84.1959,-140.225 L 84.2866,-139.798 L 84.1959,-139.372 L 83.9395,-139.019 L 83.5618,-138.801 L 83.1281,-138.755 L 82.7133,-138.89 M 102.669,-138.89 L 102.345,-139.182 L 102.168,-139.58 L 102.168,-140.016 L 102.345,-140.415 L 102.669,-140.707 L 103.084,-140.841 L 103.518,-140.796 L 103.896,-140.578 L 104.152,-140.225 L 104.243,-139.798 L 104.152,-139.372 L 103.896,-139.019 L 103.518,-138.801 L 103.084,-138.755 L 102.669,-138.89 M 85.9573,-137.879 L 85.6332,-138.171 L 85.4558,-138.569 L 85.4558,-139.005 L 85.6332,-139.404 L 85.9573,-139.696 L 86.3721,-139.83 L 86.8059,-139.785 L 87.1836,-139.567 L 87.44,-139.214 L 87.5307,-138.787 L 87.44,-138.361 L 87.1836,-138.008 L 86.8059,-137.79 L 86.3721,-137.744 L 85.9573,-137.879 M 99.4253,-137.879 L 99.1012,-138.171 L 98.9238,-138.569 L 98.9238,-139.005 L 99.1012,-139.404 L 99.4253,-139.696 L 99.8401,-139.83 L 100.274,-139.785 L 100.652,-139.567 L 100.908,-139.214 L 100.999,-138.787 L 100.908,-138.361 L 100.652,-138.008 L 100.274,-137.79 L 99.8401,-137.744 L 99.4253,-137.879 M 89.2996,-137.266 L 88.9755,-137.558 L 88.7981,-137.957 L 88.7981,-138.393 L 88.9755,-138.791 L 89.2996,-139.083 L 89.7144,-139.218 L 90.1482,-139.172 L 90.5259,-138.954 L 90.7823,-138.601 L 90.8729,-138.175 L 90.7823,-137.748 L 90.5259,-137.395 L 90.1482,-137.177 L 89.7144,-137.132 L 89.2996,-137.266 M 96.0831,-137.266 L 95.759,-137.558 L 95.5816,-137.957 L 95.5816,-138.393 L 95.759,-138.791 L 96.0831,-139.083 L 96.4979,-139.218 L 96.9316,-139.172 L 97.3094,-138.954 L 97.5657,-138.601 L 97.6564,-138.175 L 97.5657,-137.748 L 97.3094,-137.395 L 96.9316,-137.177 L 96.4979,-137.132 L 96.0831,-137.266 M 92.6913,-137.061 L 92.3672,-137.353 L 92.1898,-137.752 L 92.1898,-138.188 L 92.3672,-138.586 L 92.6913,-138.878 L 93.1061,-139.013 L 93.5399,-138.967 L 93.9176,-138.749 L 94.174,-138.396 L 94.2647,-137.97 L 94.174,-137.543 L 93.9176,-137.19 L 93.5399,-136.972 L 93.1061,-136.926 L 92.6913,-137.061" stroke="#0000ff" fill="none" stroke-width="0.1"/><path d="M 118.107,-165.611 L 118.209,-165.633 L 118.304,-165.675 L 118.389,-165.737 L 118.459,-165.814 L 118.511,-165.905 L 118.543,-166.004 L 118.554,-166.108 L 118.543,-166.212 L 118.511,-166.311 L 118.459,-166.402 L 118.389,-166.48 L 118.304,-166.541 L 118.209,-166.583 L 118.107,-166.605 L 116.627,-166.605 L 116.525,-166.583 L 116.43,-166.541 L 116.345,-166.48 L 116.275,-166.402 L 116.223,-166.311 L 116.191,-166.212 L 116.18,-166.108 L 116.191,-166.004 L 116.223,-165.905 L 116.275,-165.814 L 116.345,-165.737 L 116.43,-165.675 L 116.525,-165.633 L 116.627,-165.611 L 118.107,-165.611 M 57.9294,-165.611 L 58.0316,-165.633 L 58.1271,-165.675 L 58.2116,-165.737 L 58.2815,-165.814 L 58.3337,-165.905 L 58.366,-166.004 L 58.3769,-166.108 L 58.366,-166.212 L 58.3337,-166.311 L 58.2815,-166.402 L 58.2116,-166.48 L 58.1271,-166.541 L 58.0316,-166.583 L 57.9294,-166.605 L 56.45,-166.605 L 56.3478,-166.583 L 56.2523,-166.541 L 56.1678,-166.48 L 56.0979,-166.402 L 56.0457,-166.311 L 56.0134,-166.212 L 56.0025,-166.108 L 56.0134,-166.004 L 56.0457,-165.905 L 56.0979,-165.814 L 56.1678,-165.737 L 56.2523,-165.675 L 56.3478,-165.633 L 56.45,-165.611 L 57.9294,-165.611" stroke="none" fill="#000000" stroke-width="0.35"/><path d="M 64.6386,-10.35 L 72.6386,-10.35 L 72.6386,-7.3 M 78.1886,-7.3 L 78.1886,-12.85 L 75.1386,-12.85 L 75.1386,-20.85 L 78.1886,-20.85 L 78.1886,-26.4 L 72.6386,-26.4 L 72.6386,-23.35 L 64.6386,-23.35 L 64.6386,-26.4 L 59.0886,-26.4 L 59.0886,-20.85 L 62.1386,-20.85 L 62.1386,-12.85 L 59.0886,-12.85 L 59.0886,-7.3 M 64.6386,-7.3 L 64.6386,-10.35 M 68.4087,-14.6623 L 67.9588,-14.7579 L 67.5387,-14.945 L 67.1667,-15.2153 L 66.859,-15.557 L 66.629,-15.9553 L 66.4869,-16.3927 L 66.4389,-16.85 L 66.4869,-17.3073 L 66.629,-17.7447 L 66.859,-18.143 L 67.1667,-18.4847 L 67.5387,-18.755 L 67.9588,-18.9421 L 68.4087,-19.0377 L 68.8685,-19.0377 L 69.3183,-18.9421 L 69.7385,-18.755 L 70.1105,-18.4847 L 70.4182,-18.143 L 70.6481,-17.7447 L 70.7902,-17.3073 L 70.8383,-16.85 L 70.7902,-16.3927 L 70.6481,-15.9553 L 70.4182,-15.557 L 70.1105,-15.2153 L 69.7385,-14.945 L 69.3183,-14.7579 L 68.8685,-14.6623 L 68.4087,-14.6623" stroke="#0000ff" fill="none" stroke-width="0.1"/></svg>